<?xml version="1.0" encoding="utf-8" standalone="no"?>
<!DOCTYPE svg PUBLIC "-//W3C//DTD SVG 1.1//EN"
  "http://www.w3.org/Graphics/SVG/1.1/DTD/svg11.dtd">
<svg xmlns:xlink="http://www.w3.org/1999/xlink" width="432pt" height="288pt" viewBox="0 0 432 288" xmlns="http://www.w3.org/2000/svg" version="1.1">
 <metadata>
  <rdf:RDF xmlns:dc="http://purl.org/dc/elements/1.1/" xmlns:cc="http://creativecommons.org/ns#" xmlns:rdf="http://www.w3.org/1999/02/22-rdf-syntax-ns#">
   <cc:Work>
    <dc:type rdf:resource="http://purl.org/dc/dcmitype/StillImage"/>
    <dc:date>2022-11-21T19:33:51.813768</dc:date>
    <dc:format>image/svg+xml</dc:format>
    <dc:creator>
     <cc:Agent>
      <dc:title>Matplotlib v3.6.1, https://matplotlib.org/</dc:title>
     </cc:Agent>
    </dc:creator>
   </cc:Work>
  </rdf:RDF>
 </metadata>
 <defs>
  <style type="text/css">*{stroke-linejoin: round; stroke-linecap: butt}</style>
 </defs>
 <g id="figure_1">
  <g id="patch_1">
   <path d="M 0 288 
L 432 288 
L 432 0 
L 0 0 
z
" style="fill: #ffffff"/>
  </g>
  <g id="axes_1">
   <g id="patch_2">
    <path d="M 54 256.32 
L 388.8 256.32 
L 388.8 34.56 
L 54 34.56 
z
" style="fill: #ffffff"/>
   </g>
   <g id="matplotlib.axis_1">
    <g id="xtick_1">
     <g id="line2d_1">
      <path d="M 66.143802 256.32 
L 66.143802 34.56 
" clip-path="url(#pc78e69c398)" style="fill: none; stroke: #b0b0b0; stroke-width: 0.8; stroke-linecap: square"/>
     </g>
     <g id="line2d_2">
      <defs>
       <path id="m4d2cbaaa9c" d="M 0 0 
L 0 3.5 
" style="stroke: #000000; stroke-width: 0.8"/>
      </defs>
      <g>
       <use xlink:href="#m4d2cbaaa9c" x="66.143802" y="256.32" style="stroke: #000000; stroke-width: 0.8"/>
      </g>
     </g>
     <g id="text_1">
      <!-- 0 -->
      <g transform="translate(63.643802 270.149688) scale(0.1 -0.1)">
       <defs>
        <path id="STIXGeneral-Regular-30" d="M 3046 2112 
Q 3046 1683 2963 1302 
Q 2880 922 2717 602 
Q 2554 282 2266 96 
Q 1978 -90 1600 -90 
Q 1210 -90 915 108 
Q 621 307 461 640 
Q 301 973 227 1350 
Q 154 1728 154 2150 
Q 154 2746 301 3222 
Q 448 3699 790 4012 
Q 1133 4326 1626 4326 
Q 2253 4326 2649 3712 
Q 3046 3098 3046 2112 
z
M 2432 2080 
Q 2432 3091 2217 3625 
Q 2003 4160 1587 4160 
Q 1190 4160 979 3622 
Q 768 3085 768 2106 
Q 768 1120 979 598 
Q 1190 77 1600 77 
Q 2003 77 2217 598 
Q 2432 1120 2432 2080 
z
" transform="scale(0.015625)"/>
       </defs>
       <use xlink:href="#STIXGeneral-Regular-30"/>
      </g>
     </g>
    </g>
    <g id="xtick_2">
     <g id="line2d_3">
      <path d="M 127.631405 256.32 
L 127.631405 34.56 
" clip-path="url(#pc78e69c398)" style="fill: none; stroke: #b0b0b0; stroke-width: 0.8; stroke-linecap: square"/>
     </g>
     <g id="line2d_4">
      <g>
       <use xlink:href="#m4d2cbaaa9c" x="127.631405" y="256.32" style="stroke: #000000; stroke-width: 0.8"/>
      </g>
     </g>
     <g id="text_2">
      <!-- 20 -->
      <g transform="translate(122.631405 270.149688) scale(0.1 -0.1)">
       <defs>
        <path id="STIXGeneral-Regular-32" d="M 3034 877 
L 2688 0 
L 186 0 
L 186 77 
L 1325 1286 
Q 1773 1754 1965 2144 
Q 2157 2534 2157 2950 
Q 2157 3379 1920 3616 
Q 1683 3853 1267 3853 
Q 922 3853 720 3673 
Q 518 3494 326 3021 
L 192 3053 
Q 301 3648 630 3987 
Q 960 4326 1523 4326 
Q 2054 4326 2380 4006 
Q 2707 3686 2707 3200 
Q 2707 2477 1888 1613 
L 832 486 
L 2330 486 
Q 2541 486 2665 569 
Q 2790 653 2944 915 
L 3034 877 
z
" transform="scale(0.015625)"/>
       </defs>
       <use xlink:href="#STIXGeneral-Regular-32"/>
       <use xlink:href="#STIXGeneral-Regular-30" x="49.999985"/>
      </g>
     </g>
    </g>
    <g id="xtick_3">
     <g id="line2d_5">
      <path d="M 189.119008 256.32 
L 189.119008 34.56 
" clip-path="url(#pc78e69c398)" style="fill: none; stroke: #b0b0b0; stroke-width: 0.8; stroke-linecap: square"/>
     </g>
     <g id="line2d_6">
      <g>
       <use xlink:href="#m4d2cbaaa9c" x="189.119008" y="256.32" style="stroke: #000000; stroke-width: 0.8"/>
      </g>
     </g>
     <g id="text_3">
      <!-- 40 -->
      <g transform="translate(184.119008 270.149688) scale(0.1 -0.1)">
       <defs>
        <path id="STIXGeneral-Regular-34" d="M 3027 1069 
L 2368 1069 
L 2368 0 
L 1869 0 
L 1869 1069 
L 77 1069 
L 77 1478 
L 2086 4326 
L 2368 4326 
L 2368 1478 
L 3027 1478 
L 3027 1069 
z
M 1869 1478 
L 1869 3674 
L 333 1478 
L 1869 1478 
z
" transform="scale(0.015625)"/>
       </defs>
       <use xlink:href="#STIXGeneral-Regular-34"/>
       <use xlink:href="#STIXGeneral-Regular-30" x="49.999985"/>
      </g>
     </g>
    </g>
    <g id="xtick_4">
     <g id="line2d_7">
      <path d="M 250.606612 256.32 
L 250.606612 34.56 
" clip-path="url(#pc78e69c398)" style="fill: none; stroke: #b0b0b0; stroke-width: 0.8; stroke-linecap: square"/>
     </g>
     <g id="line2d_8">
      <g>
       <use xlink:href="#m4d2cbaaa9c" x="250.606612" y="256.32" style="stroke: #000000; stroke-width: 0.8"/>
      </g>
     </g>
     <g id="text_4">
      <!-- 60 -->
      <g transform="translate(245.606612 270.149688) scale(0.1 -0.1)">
       <defs>
        <path id="STIXGeneral-Regular-36" d="M 2854 4378 
L 2867 4275 
Q 2112 4154 1606 3664 
Q 1101 3174 973 2451 
Q 1344 2739 1786 2739 
Q 2349 2739 2672 2380 
Q 2995 2022 2995 1402 
Q 2995 774 2669 378 
Q 2291 -90 1651 -90 
Q 870 -90 518 557 
Q 218 1107 218 1786 
Q 218 2835 915 3552 
Q 1312 3962 1731 4131 
Q 2150 4301 2854 4378 
z
M 2419 1203 
Q 2419 2445 1555 2445 
Q 1235 2445 1024 2275 
Q 813 2106 813 1702 
Q 813 954 1046 522 
Q 1280 90 1722 90 
Q 2061 90 2240 394 
Q 2419 698 2419 1203 
z
" transform="scale(0.015625)"/>
       </defs>
       <use xlink:href="#STIXGeneral-Regular-36"/>
       <use xlink:href="#STIXGeneral-Regular-30" x="49.999985"/>
      </g>
     </g>
    </g>
    <g id="xtick_5">
     <g id="line2d_9">
      <path d="M 312.094215 256.32 
L 312.094215 34.56 
" clip-path="url(#pc78e69c398)" style="fill: none; stroke: #b0b0b0; stroke-width: 0.8; stroke-linecap: square"/>
     </g>
     <g id="line2d_10">
      <g>
       <use xlink:href="#m4d2cbaaa9c" x="312.094215" y="256.32" style="stroke: #000000; stroke-width: 0.8"/>
      </g>
     </g>
     <g id="text_5">
      <!-- 80 -->
      <g transform="translate(307.094215 270.149688) scale(0.1 -0.1)">
       <defs>
        <path id="STIXGeneral-Regular-38" d="M 2848 992 
Q 2848 499 2505 204 
Q 2163 -90 1587 -90 
Q 1050 -90 704 204 
Q 358 499 358 954 
Q 358 1293 524 1533 
Q 691 1773 1190 2125 
Q 710 2522 553 2765 
Q 397 3008 397 3328 
Q 397 3782 745 4054 
Q 1094 4326 1638 4326 
Q 2106 4326 2410 4060 
Q 2714 3795 2714 3411 
Q 2714 3059 2531 2848 
Q 2349 2637 1856 2374 
Q 2432 1990 2640 1689 
Q 2848 1389 2848 992 
z
M 2272 3411 
Q 2272 3744 2086 3945 
Q 1901 4147 1574 4147 
Q 1248 4147 1059 3977 
Q 870 3808 870 3513 
Q 870 3219 1059 2979 
Q 1248 2739 1670 2490 
Q 1997 2682 2134 2896 
Q 2272 3110 2272 3411 
z
M 1734 1741 
L 1357 1997 
Q 1075 1766 960 1545 
Q 845 1325 845 1011 
Q 845 576 1065 333 
Q 1286 90 1658 90 
Q 1971 90 2166 285 
Q 2362 480 2362 794 
Q 2362 1082 2214 1299 
Q 2067 1517 1734 1741 
z
" transform="scale(0.015625)"/>
       </defs>
       <use xlink:href="#STIXGeneral-Regular-38"/>
       <use xlink:href="#STIXGeneral-Regular-30" x="49.999985"/>
      </g>
     </g>
    </g>
    <g id="xtick_6">
     <g id="line2d_11">
      <path d="M 373.581818 256.32 
L 373.581818 34.56 
" clip-path="url(#pc78e69c398)" style="fill: none; stroke: #b0b0b0; stroke-width: 0.8; stroke-linecap: square"/>
     </g>
     <g id="line2d_12">
      <g>
       <use xlink:href="#m4d2cbaaa9c" x="373.581818" y="256.32" style="stroke: #000000; stroke-width: 0.8"/>
      </g>
     </g>
     <g id="text_6">
      <!-- 100 -->
      <g transform="translate(366.081818 270.149688) scale(0.1 -0.1)">
       <defs>
        <path id="STIXGeneral-Regular-31" d="M 2522 0 
L 755 0 
L 755 96 
Q 1107 115 1235 227 
Q 1363 339 1363 608 
L 1363 3482 
Q 1363 3795 1171 3795 
Q 1082 3795 883 3718 
L 710 3654 
L 710 3744 
L 1856 4326 
L 1914 4307 
L 1914 486 
Q 1914 275 2042 185 
Q 2170 96 2522 96 
L 2522 0 
z
" transform="scale(0.015625)"/>
       </defs>
       <use xlink:href="#STIXGeneral-Regular-31"/>
       <use xlink:href="#STIXGeneral-Regular-30" x="49.999985"/>
       <use xlink:href="#STIXGeneral-Regular-30" x="99.999969"/>
      </g>
     </g>
    </g>
    <g id="text_7">
     <!-- Measurement number -->
     <g transform="translate(177.658594 283.149688) scale(0.1 -0.1)">
      <defs>
       <path id="STIXGeneral-Regular-4d" d="M 5530 0 
L 3738 0 
L 3738 122 
Q 4115 147 4214 265 
Q 4314 384 4314 787 
L 4314 3661 
L 2682 0 
L 2592 0 
L 979 3514 
L 979 966 
Q 979 448 1088 294 
Q 1197 141 1574 122 
L 1574 0 
L 77 0 
L 77 122 
Q 358 141 480 205 
Q 602 269 650 432 
Q 698 595 698 966 
L 698 3514 
Q 698 3878 589 3984 
Q 480 4090 90 4115 
L 90 4237 
L 1357 4237 
L 2835 1024 
L 4250 4237 
L 5523 4237 
L 5523 4115 
Q 5178 4109 5072 3993 
Q 4966 3878 4966 3520 
L 4966 717 
Q 4966 378 5072 262 
Q 5178 147 5530 122 
L 5530 0 
z
" transform="scale(0.015625)"/>
       <path id="STIXGeneral-Regular-65" d="M 2611 1050 
L 2714 1005 
Q 2330 -64 1376 -64 
Q 813 -64 486 329 
Q 160 723 160 1389 
Q 160 2074 525 2509 
Q 890 2944 1485 2944 
Q 2061 2944 2374 2502 
Q 2560 2246 2592 1773 
L 621 1773 
Q 646 1370 700 1158 
Q 755 947 915 730 
Q 1184 378 1626 378 
Q 1939 378 2153 531 
Q 2368 685 2611 1050 
z
M 634 1978 
L 1939 1978 
Q 1882 2381 1750 2547 
Q 1619 2714 1312 2714 
Q 1043 2714 864 2525 
Q 685 2336 634 1978 
z
" transform="scale(0.015625)"/>
       <path id="STIXGeneral-Regular-61" d="M 2829 422 
L 2829 243 
Q 2586 -64 2253 -64 
Q 1888 -64 1843 403 
L 1837 403 
Q 1427 -64 909 -64 
Q 608 -64 422 112 
Q 237 288 237 602 
Q 237 1050 685 1350 
Q 992 1555 1837 1869 
L 1837 2214 
Q 1837 2502 1699 2646 
Q 1562 2790 1338 2790 
Q 1146 2790 1018 2697 
Q 890 2605 890 2477 
Q 890 2419 909 2348 
Q 928 2278 928 2208 
Q 928 2112 841 2029 
Q 755 1946 634 1946 
Q 525 1946 441 2029 
Q 358 2112 358 2240 
Q 358 2547 685 2752 
Q 986 2944 1421 2944 
Q 1939 2944 2176 2656 
Q 2291 2522 2323 2384 
Q 2355 2246 2355 1946 
L 2355 723 
Q 2355 301 2554 301 
Q 2682 301 2829 422 
z
M 1837 813 
L 1837 1715 
Q 1248 1510 1018 1293 
Q 800 1094 800 800 
Q 800 557 921 432 
Q 1043 307 1242 307 
Q 1453 307 1613 410 
Q 1747 506 1792 589 
Q 1837 672 1837 813 
z
" transform="scale(0.015625)"/>
       <path id="STIXGeneral-Regular-73" d="M 998 1926 
L 1664 1523 
Q 1984 1331 2105 1164 
Q 2227 998 2227 736 
Q 2227 416 1961 176 
Q 1696 -64 1331 -64 
Q 1030 -64 864 -6 
Q 691 51 570 51 
Q 461 51 416 -26 
L 333 -26 
L 333 979 
L 435 979 
Q 538 512 730 294 
Q 922 77 1248 77 
Q 1485 77 1632 211 
Q 1779 346 1779 550 
Q 1779 845 1440 1030 
L 1094 1222 
Q 326 1651 326 2150 
Q 326 2522 566 2730 
Q 806 2938 1210 2938 
Q 1491 2938 1638 2867 
Q 1754 2816 1818 2816 
Q 1862 2816 1920 2880 
L 1990 2880 
L 2022 2010 
L 1926 2010 
Q 1818 2445 1654 2621 
Q 1491 2797 1203 2797 
Q 986 2797 854 2688 
Q 723 2579 723 2362 
Q 723 2253 796 2128 
Q 870 2003 998 1926 
z
" transform="scale(0.015625)"/>
       <path id="STIXGeneral-Regular-75" d="M 3072 320 
L 3072 230 
Q 2573 96 2195 -58 
L 2163 -38 
L 2163 486 
L 2150 486 
Q 1747 -64 1235 -64 
Q 870 -64 662 160 
Q 454 384 454 755 
L 454 2362 
Q 454 2598 371 2688 
Q 288 2778 58 2790 
L 58 2880 
L 992 2880 
L 992 813 
Q 992 595 1123 451 
Q 1254 307 1446 307 
Q 1760 307 1984 506 
Q 2067 582 2099 649 
Q 2131 717 2131 877 
L 2131 2355 
Q 2131 2605 2041 2678 
Q 1952 2752 1658 2771 
L 1658 2880 
L 2669 2880 
L 2669 685 
Q 2669 461 2742 390 
Q 2816 320 3034 320 
L 3072 320 
z
" transform="scale(0.015625)"/>
       <path id="STIXGeneral-Regular-72" d="M 1024 2931 
L 1024 2342 
Q 1267 2688 1430 2816 
Q 1594 2944 1792 2944 
Q 1958 2944 2051 2854 
Q 2144 2765 2144 2605 
Q 2144 2470 2077 2393 
Q 2010 2317 1894 2317 
Q 1773 2317 1638 2445 
Q 1536 2541 1472 2541 
Q 1338 2541 1181 2355 
Q 1024 2170 1024 2016 
L 1024 576 
Q 1024 301 1133 205 
Q 1242 109 1568 96 
L 1568 0 
L 32 0 
L 32 96 
Q 339 154 412 224 
Q 486 294 486 538 
L 486 2138 
Q 486 2349 438 2435 
Q 390 2522 269 2522 
Q 166 2522 45 2496 
L 45 2598 
Q 448 2726 992 2944 
L 1024 2931 
z
" transform="scale(0.015625)"/>
       <path id="STIXGeneral-Regular-6d" d="M 4960 0 
L 3565 0 
L 3565 96 
Q 3834 122 3907 208 
Q 3981 294 3981 576 
L 3981 1894 
Q 3981 2278 3869 2444 
Q 3757 2611 3488 2611 
Q 3264 2611 3107 2521 
Q 2950 2432 2803 2221 
L 2803 608 
Q 2803 301 2896 201 
Q 2989 102 3264 96 
L 3264 0 
L 1830 0 
L 1830 96 
Q 2112 115 2189 188 
Q 2266 262 2266 550 
L 2266 1901 
Q 2266 2611 1850 2611 
Q 1670 2611 1468 2531 
Q 1267 2451 1171 2336 
Q 1088 2240 1088 2227 
L 1088 448 
Q 1088 243 1177 176 
Q 1267 109 1523 96 
L 1523 0 
L 102 0 
L 102 96 
Q 371 102 460 195 
Q 550 288 550 563 
L 550 2150 
Q 550 2387 499 2480 
Q 448 2573 326 2573 
Q 230 2573 122 2547 
L 122 2656 
Q 557 2778 1011 2944 
L 1062 2925 
L 1062 2451 
L 1075 2451 
Q 1363 2752 1584 2848 
Q 1805 2944 2054 2944 
Q 2560 2944 2733 2406 
Q 3232 2944 3776 2944 
Q 4518 2944 4518 1792 
L 4518 493 
Q 4518 282 4582 202 
Q 4646 122 4794 109 
L 4960 96 
L 4960 0 
z
" transform="scale(0.015625)"/>
       <path id="STIXGeneral-Regular-6e" d="M 3104 0 
L 1773 0 
L 1779 96 
Q 2016 115 2096 233 
Q 2176 352 2176 672 
L 2176 1946 
Q 2176 2592 1709 2592 
Q 1549 2592 1408 2515 
Q 1267 2438 1050 2227 
L 1050 461 
Q 1050 269 1136 192 
Q 1222 115 1466 96 
L 1466 0 
L 115 0 
L 115 96 
Q 358 115 435 214 
Q 512 314 512 602 
L 512 2157 
Q 512 2394 467 2483 
Q 422 2573 288 2573 
Q 160 2573 102 2547 
L 102 2656 
Q 550 2784 979 2944 
L 1030 2925 
L 1030 2426 
L 1037 2426 
Q 1491 2944 1958 2944 
Q 2323 2944 2518 2688 
Q 2714 2432 2714 1958 
L 2714 544 
Q 2714 288 2790 205 
Q 2867 122 3104 96 
L 3104 0 
z
" transform="scale(0.015625)"/>
       <path id="STIXGeneral-Regular-74" d="M 1702 493 
L 1786 422 
Q 1478 -64 1011 -64 
Q 448 -64 448 749 
L 448 2675 
L 109 2675 
Q 83 2694 83 2720 
Q 83 2771 192 2842 
Q 435 2982 813 3526 
Q 826 3546 874 3606 
Q 922 3667 941 3706 
Q 986 3706 986 3622 
L 986 2880 
L 1632 2880 
L 1632 2675 
L 986 2675 
L 986 845 
Q 986 538 1062 403 
Q 1139 269 1318 269 
Q 1510 269 1702 493 
z
" transform="scale(0.015625)"/>
       <path id="STIXGeneral-Regular-20" transform="scale(0.015625)"/>
       <path id="STIXGeneral-Regular-62" d="M 979 4358 
L 979 2406 
Q 1082 2650 1315 2797 
Q 1549 2944 1843 2944 
Q 2349 2944 2672 2541 
Q 2995 2138 2995 1536 
Q 2995 832 2566 384 
Q 2138 -64 1498 -64 
Q 1107 -64 774 67 
Q 442 198 442 358 
L 442 3622 
Q 442 3859 384 3926 
Q 326 3994 128 3994 
Q 83 3994 19 3981 
L 19 4090 
L 211 4147 
Q 864 4346 947 4371 
L 979 4358 
z
M 979 2035 
L 979 474 
Q 979 326 1161 233 
Q 1344 141 1600 141 
Q 1978 141 2195 416 
Q 2432 710 2432 1261 
Q 2432 1888 2182 2240 
Q 1971 2541 1613 2541 
Q 1357 2541 1168 2390 
Q 979 2240 979 2035 
z
" transform="scale(0.015625)"/>
      </defs>
      <use xlink:href="#STIXGeneral-Regular-4d"/>
      <use xlink:href="#STIXGeneral-Regular-65" x="88.899994"/>
      <use xlink:href="#STIXGeneral-Regular-61" x="133.299988"/>
      <use xlink:href="#STIXGeneral-Regular-73" x="177.699982"/>
      <use xlink:href="#STIXGeneral-Regular-75" x="216.599976"/>
      <use xlink:href="#STIXGeneral-Regular-72" x="266.59996"/>
      <use xlink:href="#STIXGeneral-Regular-65" x="299.899948"/>
      <use xlink:href="#STIXGeneral-Regular-6d" x="344.299942"/>
      <use xlink:href="#STIXGeneral-Regular-65" x="422.09993"/>
      <use xlink:href="#STIXGeneral-Regular-6e" x="466.499924"/>
      <use xlink:href="#STIXGeneral-Regular-74" x="516.499908"/>
      <use xlink:href="#STIXGeneral-Regular-20" x="544.299896"/>
      <use xlink:href="#STIXGeneral-Regular-6e" x="569.299881"/>
      <use xlink:href="#STIXGeneral-Regular-75" x="619.299866"/>
      <use xlink:href="#STIXGeneral-Regular-6d" x="669.29985"/>
      <use xlink:href="#STIXGeneral-Regular-62" x="747.099838"/>
      <use xlink:href="#STIXGeneral-Regular-65" x="797.099823"/>
      <use xlink:href="#STIXGeneral-Regular-72" x="841.499817"/>
     </g>
    </g>
   </g>
   <g id="matplotlib.axis_2">
    <g id="ytick_1">
     <g id="line2d_13">
      <path d="M 54 245.595905 
L 388.8 245.595905 
" clip-path="url(#pc78e69c398)" style="fill: none; stroke: #b0b0b0; stroke-width: 0.8; stroke-linecap: square"/>
     </g>
     <g id="line2d_14">
      <defs>
       <path id="me466763b74" d="M 0 0 
L -3.5 0 
" style="stroke: #000000; stroke-width: 0.8"/>
      </defs>
      <g>
       <use xlink:href="#me466763b74" x="54" y="245.595905" style="stroke: #000000; stroke-width: 0.8"/>
      </g>
     </g>
     <g id="text_8">
      <!-- 50 -->
      <g transform="translate(37 249.010748) scale(0.1 -0.1)">
       <defs>
        <path id="STIXGeneral-Regular-35" d="M 2803 4358 
L 2573 3814 
Q 2534 3731 2400 3731 
L 1158 3731 
L 902 3187 
Q 1606 3053 1920 2896 
Q 2234 2739 2502 2368 
Q 2726 2061 2726 1555 
Q 2726 1094 2576 780 
Q 2426 467 2099 224 
Q 1664 -90 1011 -90 
Q 646 -90 422 19 
Q 198 128 198 307 
Q 198 550 486 550 
Q 717 550 960 352 
Q 1210 147 1414 147 
Q 1747 147 2012 480 
Q 2278 813 2278 1229 
Q 2278 1843 1850 2189 
Q 1293 2637 486 2637 
Q 410 2637 410 2688 
L 416 2720 
L 1114 4237 
L 2438 4237 
Q 2547 4237 2608 4269 
Q 2669 4301 2746 4403 
L 2803 4358 
z
" transform="scale(0.015625)"/>
       </defs>
       <use xlink:href="#STIXGeneral-Regular-35"/>
       <use xlink:href="#STIXGeneral-Regular-30" x="49.999985"/>
      </g>
     </g>
    </g>
    <g id="ytick_2">
     <g id="line2d_15">
      <path d="M 54 205.17653 
L 388.8 205.17653 
" clip-path="url(#pc78e69c398)" style="fill: none; stroke: #b0b0b0; stroke-width: 0.8; stroke-linecap: square"/>
     </g>
     <g id="line2d_16">
      <g>
       <use xlink:href="#me466763b74" x="54" y="205.17653" style="stroke: #000000; stroke-width: 0.8"/>
      </g>
     </g>
     <g id="text_9">
      <!-- 60 -->
      <g transform="translate(37 208.591373) scale(0.1 -0.1)">
       <use xlink:href="#STIXGeneral-Regular-36"/>
       <use xlink:href="#STIXGeneral-Regular-30" x="49.999985"/>
      </g>
     </g>
    </g>
    <g id="ytick_3">
     <g id="line2d_17">
      <path d="M 54 164.757155 
L 388.8 164.757155 
" clip-path="url(#pc78e69c398)" style="fill: none; stroke: #b0b0b0; stroke-width: 0.8; stroke-linecap: square"/>
     </g>
     <g id="line2d_18">
      <g>
       <use xlink:href="#me466763b74" x="54" y="164.757155" style="stroke: #000000; stroke-width: 0.8"/>
      </g>
     </g>
     <g id="text_10">
      <!-- 70 -->
      <g transform="translate(37 168.171998) scale(0.1 -0.1)">
       <defs>
        <path id="STIXGeneral-Regular-37" d="M 2874 4134 
L 1517 -51 
L 1101 -51 
L 2368 3763 
L 992 3763 
Q 717 3763 582 3667 
Q 448 3571 243 3238 
L 128 3296 
L 512 4237 
L 2874 4237 
L 2874 4134 
z
" transform="scale(0.015625)"/>
       </defs>
       <use xlink:href="#STIXGeneral-Regular-37"/>
       <use xlink:href="#STIXGeneral-Regular-30" x="49.999985"/>
      </g>
     </g>
    </g>
    <g id="ytick_4">
     <g id="line2d_19">
      <path d="M 54 124.33778 
L 388.8 124.33778 
" clip-path="url(#pc78e69c398)" style="fill: none; stroke: #b0b0b0; stroke-width: 0.8; stroke-linecap: square"/>
     </g>
     <g id="line2d_20">
      <g>
       <use xlink:href="#me466763b74" x="54" y="124.33778" style="stroke: #000000; stroke-width: 0.8"/>
      </g>
     </g>
     <g id="text_11">
      <!-- 80 -->
      <g transform="translate(37 127.752623) scale(0.1 -0.1)">
       <use xlink:href="#STIXGeneral-Regular-38"/>
       <use xlink:href="#STIXGeneral-Regular-30" x="49.999985"/>
      </g>
     </g>
    </g>
    <g id="ytick_5">
     <g id="line2d_21">
      <path d="M 54 83.918405 
L 388.8 83.918405 
" clip-path="url(#pc78e69c398)" style="fill: none; stroke: #b0b0b0; stroke-width: 0.8; stroke-linecap: square"/>
     </g>
     <g id="line2d_22">
      <g>
       <use xlink:href="#me466763b74" x="54" y="83.918405" style="stroke: #000000; stroke-width: 0.8"/>
      </g>
     </g>
     <g id="text_12">
      <!-- 90 -->
      <g transform="translate(37 87.333248) scale(0.1 -0.1)">
       <defs>
        <path id="STIXGeneral-Regular-39" d="M 378 -141 
L 358 -13 
Q 1094 115 1603 608 
Q 2112 1101 2304 1882 
Q 1933 1517 1344 1517 
Q 826 1517 509 1875 
Q 192 2234 192 2816 
Q 192 3462 573 3894 
Q 954 4326 1523 4326 
Q 2131 4326 2528 3840 
Q 2938 3328 2938 2522 
Q 2938 1958 2742 1462 
Q 2547 966 2170 621 
Q 1773 262 1395 105 
Q 1018 -51 378 -141 
z
M 2317 2272 
L 2317 2522 
Q 2317 4147 1472 4147 
Q 1171 4147 1005 3930 
Q 909 3802 845 3546 
Q 781 3290 781 3034 
Q 781 2464 995 2128 
Q 1210 1792 1568 1792 
Q 1824 1792 2070 1917 
Q 2317 2042 2317 2272 
z
" transform="scale(0.015625)"/>
       </defs>
       <use xlink:href="#STIXGeneral-Regular-39"/>
       <use xlink:href="#STIXGeneral-Regular-30" x="49.999985"/>
      </g>
     </g>
    </g>
    <g id="ytick_6">
     <g id="line2d_23">
      <path d="M 54 43.49903 
L 388.8 43.49903 
" clip-path="url(#pc78e69c398)" style="fill: none; stroke: #b0b0b0; stroke-width: 0.8; stroke-linecap: square"/>
     </g>
     <g id="line2d_24">
      <g>
       <use xlink:href="#me466763b74" x="54" y="43.49903" style="stroke: #000000; stroke-width: 0.8"/>
      </g>
     </g>
     <g id="text_13">
      <!-- 100 -->
      <g transform="translate(32 46.913873) scale(0.1 -0.1)">
       <use xlink:href="#STIXGeneral-Regular-31"/>
       <use xlink:href="#STIXGeneral-Regular-30" x="49.999985"/>
       <use xlink:href="#STIXGeneral-Regular-30" x="99.999969"/>
      </g>
     </g>
    </g>
    <g id="text_14">
     <!-- Temperature ($\degree$ C) -->
     <g transform="translate(25.8 182.19) rotate(-90) scale(0.1 -0.1)">
      <defs>
       <path id="STIXGeneral-Regular-54" d="M 3795 3149 
L 3642 3149 
Q 3539 3674 3353 3821 
Q 3168 3968 2656 3968 
L 2278 3968 
L 2278 710 
Q 2278 346 2387 243 
Q 2496 141 2893 122 
L 2893 0 
L 1024 0 
L 1024 122 
Q 1427 147 1526 256 
Q 1626 365 1626 787 
L 1626 3968 
L 1242 3968 
Q 723 3968 540 3817 
Q 358 3667 262 3149 
L 109 3149 
L 154 4237 
L 3750 4237 
L 3795 3149 
z
" transform="scale(0.015625)"/>
       <path id="STIXGeneral-Regular-70" d="M 1018 2931 
L 1018 2438 
Q 1421 2944 1939 2944 
Q 2406 2944 2707 2560 
Q 3008 2176 3008 1581 
Q 3008 883 2621 409 
Q 2234 -64 1664 -64 
Q 1466 -64 1328 -6 
Q 1190 51 1018 211 
L 1018 -794 
Q 1018 -1094 1120 -1180 
Q 1222 -1267 1581 -1274 
L 1581 -1389 
L 32 -1389 
L 32 -1280 
Q 314 -1254 397 -1171 
Q 480 -1088 480 -838 
L 480 2157 
Q 480 2381 429 2451 
Q 378 2522 218 2522 
Q 115 2522 58 2515 
L 58 2618 
Q 506 2752 979 2944 
L 1018 2931 
z
M 1018 2138 
L 1018 563 
Q 1018 422 1238 281 
Q 1459 141 1683 141 
Q 2029 141 2243 467 
Q 2458 794 2458 1325 
Q 2458 1888 2243 2224 
Q 2029 2560 1670 2560 
Q 1446 2560 1232 2419 
Q 1018 2278 1018 2138 
z
" transform="scale(0.015625)"/>
       <path id="STIXGeneral-Regular-28" d="M 1946 -1030 
L 1869 -1133 
Q 1126 -710 716 32 
Q 307 774 307 1613 
Q 307 3386 1888 4326 
L 1946 4224 
Q 1293 3667 1075 3126 
Q 858 2586 858 1632 
Q 858 685 1082 96 
Q 1306 -493 1946 -1030 
z
" transform="scale(0.015625)"/>
       <path id="STIXGeneral-Regular-b0" d="M 2195 3411 
Q 2195 3027 1929 2761 
Q 1664 2496 1280 2496 
Q 890 2496 627 2761 
Q 365 3027 365 3418 
Q 365 3802 633 4064 
Q 902 4326 1293 4326 
Q 1664 4326 1929 4057 
Q 2195 3789 2195 3411 
z
M 1946 3418 
Q 1946 3699 1744 3904 
Q 1542 4109 1267 4109 
Q 1005 4109 809 3901 
Q 614 3693 614 3411 
Q 614 3123 809 2918 
Q 1005 2714 1280 2714 
Q 1555 2714 1750 2922 
Q 1946 3130 1946 3418 
z
" transform="scale(0.015625)"/>
       <path id="STIXGeneral-Regular-43" d="M 3930 838 
L 4051 723 
Q 3482 -90 2304 -90 
Q 1376 -90 794 480 
Q 179 1082 179 2080 
Q 179 3014 755 3661 
Q 1357 4326 2310 4326 
Q 2720 4326 3072 4230 
Q 3475 4115 3514 4115 
Q 3725 4115 3782 4326 
L 3910 4326 
L 3968 2874 
L 3821 2874 
Q 3718 3334 3488 3584 
Q 3034 4070 2458 4070 
Q 1747 4070 1334 3548 
Q 922 3027 922 2182 
Q 922 1152 1382 653 
Q 1811 192 2522 192 
Q 2944 192 3251 339 
Q 3558 486 3930 838 
z
" transform="scale(0.015625)"/>
       <path id="STIXGeneral-Regular-29" d="M 186 4224 
L 262 4326 
Q 992 3891 1408 3148 
Q 1824 2406 1824 1581 
Q 1824 -166 243 -1133 
L 186 -1030 
Q 845 -486 1059 54 
Q 1274 595 1274 1562 
Q 1274 2534 1059 3120 
Q 845 3706 186 4224 
z
" transform="scale(0.015625)"/>
      </defs>
      <use xlink:href="#STIXGeneral-Regular-54" transform="translate(0 0.40625)"/>
      <use xlink:href="#STIXGeneral-Regular-65" transform="translate(61.099991 0.40625)"/>
      <use xlink:href="#STIXGeneral-Regular-6d" transform="translate(105.499985 0.40625)"/>
      <use xlink:href="#STIXGeneral-Regular-70" transform="translate(183.299973 0.40625)"/>
      <use xlink:href="#STIXGeneral-Regular-65" transform="translate(233.299957 0.40625)"/>
      <use xlink:href="#STIXGeneral-Regular-72" transform="translate(277.699951 0.40625)"/>
      <use xlink:href="#STIXGeneral-Regular-61" transform="translate(310.999939 0.40625)"/>
      <use xlink:href="#STIXGeneral-Regular-74" transform="translate(355.399933 0.40625)"/>
      <use xlink:href="#STIXGeneral-Regular-75" transform="translate(383.199921 0.40625)"/>
      <use xlink:href="#STIXGeneral-Regular-72" transform="translate(433.199905 0.40625)"/>
      <use xlink:href="#STIXGeneral-Regular-65" transform="translate(466.499893 0.40625)"/>
      <use xlink:href="#STIXGeneral-Regular-20" transform="translate(510.899887 0.40625)"/>
      <use xlink:href="#STIXGeneral-Regular-28" transform="translate(535.899872 0.40625)"/>
      <use xlink:href="#STIXGeneral-Regular-b0" transform="translate(569.19986 0.40625)"/>
      <use xlink:href="#STIXGeneral-Regular-20" transform="translate(609.199844 0.40625)"/>
      <use xlink:href="#STIXGeneral-Regular-43" transform="translate(634.199829 0.40625)"/>
      <use xlink:href="#STIXGeneral-Regular-29" transform="translate(700.899826 0.40625)"/>
     </g>
    </g>
   </g>
   <g id="line2d_25">
    <path d="M 69.218182 245.595905 
L 72.292562 243.574936 
L 75.366942 241.553967 
L 78.441322 239.532998 
L 81.515702 237.51203 
L 84.590083 235.491061 
L 87.664463 233.470092 
L 90.738843 231.449123 
L 93.813223 229.428155 
L 96.887603 227.407186 
L 99.961983 225.386217 
L 103.036364 223.365248 
L 106.110744 221.34428 
L 109.185124 219.323311 
L 112.259504 217.302342 
L 115.333884 215.281373 
L 118.408264 213.260405 
L 121.482645 211.239436 
L 124.557025 209.218467 
L 127.631405 207.197498 
L 130.705785 205.17653 
L 133.780165 203.155561 
L 136.854545 201.134592 
L 139.928926 199.113623 
L 143.003306 197.092655 
L 146.077686 195.071686 
L 149.152066 193.050717 
L 152.226446 191.029748 
L 155.300826 189.00878 
L 158.375207 186.987811 
L 161.449587 184.966842 
L 164.523967 182.945873 
L 167.598347 180.924905 
L 170.672727 178.903936 
L 173.747107 176.882967 
L 176.821488 174.861998 
L 179.895868 172.84103 
L 182.970248 170.820061 
L 186.044628 168.799092 
L 189.119008 166.778123 
L 192.193388 164.757155 
L 195.267769 162.736186 
L 198.342149 160.715217 
L 201.416529 158.694248 
L 204.490909 156.67328 
L 207.565289 154.652311 
L 210.639669 152.631342 
L 213.71405 150.610373 
L 216.78843 148.589405 
L 219.86281 146.568436 
L 222.93719 144.547467 
L 226.01157 142.526498 
L 229.08595 140.50553 
L 232.160331 138.484561 
L 235.234711 136.463592 
L 238.309091 134.442623 
L 241.383471 132.421655 
L 244.457851 130.400686 
L 247.532231 128.379717 
L 250.606612 126.358748 
L 253.680992 124.33778 
L 256.755372 122.316811 
L 259.829752 120.295842 
L 262.904132 118.274873 
L 265.978512 116.253905 
L 269.052893 114.232936 
L 272.127273 112.211967 
L 275.201653 110.190998 
L 278.276033 108.17003 
L 281.350413 106.149061 
L 284.424793 104.128092 
L 287.499174 102.107123 
L 290.573554 100.086155 
L 293.647934 98.065186 
L 296.722314 96.044217 
L 299.796694 94.023248 
L 302.871074 92.00228 
L 305.945455 89.981311 
L 309.019835 87.960342 
L 312.094215 85.939373 
L 315.168595 83.918405 
L 318.242975 81.897436 
L 321.317355 79.876467 
L 324.391736 77.855498 
L 327.466116 75.83453 
L 330.540496 73.813561 
L 333.614876 71.792592 
L 336.689256 69.771623 
L 339.763636 67.750655 
L 342.838017 65.729686 
L 345.912397 63.708717 
L 348.986777 61.687748 
L 352.061157 59.66678 
L 355.135537 57.645811 
L 358.209917 55.624842 
L 361.284298 53.603873 
L 364.358678 51.582905 
L 367.433058 49.561936 
L 370.507438 47.540967 
L 373.581818 45.519998 
" clip-path="url(#pc78e69c398)" style="fill: none; stroke: #008000; stroke-width: 1.5; stroke-linecap: square"/>
    <defs>
     <path id="mdc837d7db2" d="M -0 4.242641 
L 2.545584 0 
L 0 -4.242641 
L -2.545584 -0 
z
" style="stroke: #008000; stroke-linejoin: miter"/>
    </defs>
    <g clip-path="url(#pc78e69c398)">
     <use xlink:href="#mdc837d7db2" x="69.218182" y="245.595905" style="fill: #008000; stroke: #008000; stroke-linejoin: miter"/>
     <use xlink:href="#mdc837d7db2" x="72.292562" y="243.574936" style="fill: #008000; stroke: #008000; stroke-linejoin: miter"/>
     <use xlink:href="#mdc837d7db2" x="75.366942" y="241.553967" style="fill: #008000; stroke: #008000; stroke-linejoin: miter"/>
     <use xlink:href="#mdc837d7db2" x="78.441322" y="239.532998" style="fill: #008000; stroke: #008000; stroke-linejoin: miter"/>
     <use xlink:href="#mdc837d7db2" x="81.515702" y="237.51203" style="fill: #008000; stroke: #008000; stroke-linejoin: miter"/>
     <use xlink:href="#mdc837d7db2" x="84.590083" y="235.491061" style="fill: #008000; stroke: #008000; stroke-linejoin: miter"/>
     <use xlink:href="#mdc837d7db2" x="87.664463" y="233.470092" style="fill: #008000; stroke: #008000; stroke-linejoin: miter"/>
     <use xlink:href="#mdc837d7db2" x="90.738843" y="231.449123" style="fill: #008000; stroke: #008000; stroke-linejoin: miter"/>
     <use xlink:href="#mdc837d7db2" x="93.813223" y="229.428155" style="fill: #008000; stroke: #008000; stroke-linejoin: miter"/>
     <use xlink:href="#mdc837d7db2" x="96.887603" y="227.407186" style="fill: #008000; stroke: #008000; stroke-linejoin: miter"/>
     <use xlink:href="#mdc837d7db2" x="99.961983" y="225.386217" style="fill: #008000; stroke: #008000; stroke-linejoin: miter"/>
     <use xlink:href="#mdc837d7db2" x="103.036364" y="223.365248" style="fill: #008000; stroke: #008000; stroke-linejoin: miter"/>
     <use xlink:href="#mdc837d7db2" x="106.110744" y="221.34428" style="fill: #008000; stroke: #008000; stroke-linejoin: miter"/>
     <use xlink:href="#mdc837d7db2" x="109.185124" y="219.323311" style="fill: #008000; stroke: #008000; stroke-linejoin: miter"/>
     <use xlink:href="#mdc837d7db2" x="112.259504" y="217.302342" style="fill: #008000; stroke: #008000; stroke-linejoin: miter"/>
     <use xlink:href="#mdc837d7db2" x="115.333884" y="215.281373" style="fill: #008000; stroke: #008000; stroke-linejoin: miter"/>
     <use xlink:href="#mdc837d7db2" x="118.408264" y="213.260405" style="fill: #008000; stroke: #008000; stroke-linejoin: miter"/>
     <use xlink:href="#mdc837d7db2" x="121.482645" y="211.239436" style="fill: #008000; stroke: #008000; stroke-linejoin: miter"/>
     <use xlink:href="#mdc837d7db2" x="124.557025" y="209.218467" style="fill: #008000; stroke: #008000; stroke-linejoin: miter"/>
     <use xlink:href="#mdc837d7db2" x="127.631405" y="207.197498" style="fill: #008000; stroke: #008000; stroke-linejoin: miter"/>
     <use xlink:href="#mdc837d7db2" x="130.705785" y="205.17653" style="fill: #008000; stroke: #008000; stroke-linejoin: miter"/>
     <use xlink:href="#mdc837d7db2" x="133.780165" y="203.155561" style="fill: #008000; stroke: #008000; stroke-linejoin: miter"/>
     <use xlink:href="#mdc837d7db2" x="136.854545" y="201.134592" style="fill: #008000; stroke: #008000; stroke-linejoin: miter"/>
     <use xlink:href="#mdc837d7db2" x="139.928926" y="199.113623" style="fill: #008000; stroke: #008000; stroke-linejoin: miter"/>
     <use xlink:href="#mdc837d7db2" x="143.003306" y="197.092655" style="fill: #008000; stroke: #008000; stroke-linejoin: miter"/>
     <use xlink:href="#mdc837d7db2" x="146.077686" y="195.071686" style="fill: #008000; stroke: #008000; stroke-linejoin: miter"/>
     <use xlink:href="#mdc837d7db2" x="149.152066" y="193.050717" style="fill: #008000; stroke: #008000; stroke-linejoin: miter"/>
     <use xlink:href="#mdc837d7db2" x="152.226446" y="191.029748" style="fill: #008000; stroke: #008000; stroke-linejoin: miter"/>
     <use xlink:href="#mdc837d7db2" x="155.300826" y="189.00878" style="fill: #008000; stroke: #008000; stroke-linejoin: miter"/>
     <use xlink:href="#mdc837d7db2" x="158.375207" y="186.987811" style="fill: #008000; stroke: #008000; stroke-linejoin: miter"/>
     <use xlink:href="#mdc837d7db2" x="161.449587" y="184.966842" style="fill: #008000; stroke: #008000; stroke-linejoin: miter"/>
     <use xlink:href="#mdc837d7db2" x="164.523967" y="182.945873" style="fill: #008000; stroke: #008000; stroke-linejoin: miter"/>
     <use xlink:href="#mdc837d7db2" x="167.598347" y="180.924905" style="fill: #008000; stroke: #008000; stroke-linejoin: miter"/>
     <use xlink:href="#mdc837d7db2" x="170.672727" y="178.903936" style="fill: #008000; stroke: #008000; stroke-linejoin: miter"/>
     <use xlink:href="#mdc837d7db2" x="173.747107" y="176.882967" style="fill: #008000; stroke: #008000; stroke-linejoin: miter"/>
     <use xlink:href="#mdc837d7db2" x="176.821488" y="174.861998" style="fill: #008000; stroke: #008000; stroke-linejoin: miter"/>
     <use xlink:href="#mdc837d7db2" x="179.895868" y="172.84103" style="fill: #008000; stroke: #008000; stroke-linejoin: miter"/>
     <use xlink:href="#mdc837d7db2" x="182.970248" y="170.820061" style="fill: #008000; stroke: #008000; stroke-linejoin: miter"/>
     <use xlink:href="#mdc837d7db2" x="186.044628" y="168.799092" style="fill: #008000; stroke: #008000; stroke-linejoin: miter"/>
     <use xlink:href="#mdc837d7db2" x="189.119008" y="166.778123" style="fill: #008000; stroke: #008000; stroke-linejoin: miter"/>
     <use xlink:href="#mdc837d7db2" x="192.193388" y="164.757155" style="fill: #008000; stroke: #008000; stroke-linejoin: miter"/>
     <use xlink:href="#mdc837d7db2" x="195.267769" y="162.736186" style="fill: #008000; stroke: #008000; stroke-linejoin: miter"/>
     <use xlink:href="#mdc837d7db2" x="198.342149" y="160.715217" style="fill: #008000; stroke: #008000; stroke-linejoin: miter"/>
     <use xlink:href="#mdc837d7db2" x="201.416529" y="158.694248" style="fill: #008000; stroke: #008000; stroke-linejoin: miter"/>
     <use xlink:href="#mdc837d7db2" x="204.490909" y="156.67328" style="fill: #008000; stroke: #008000; stroke-linejoin: miter"/>
     <use xlink:href="#mdc837d7db2" x="207.565289" y="154.652311" style="fill: #008000; stroke: #008000; stroke-linejoin: miter"/>
     <use xlink:href="#mdc837d7db2" x="210.639669" y="152.631342" style="fill: #008000; stroke: #008000; stroke-linejoin: miter"/>
     <use xlink:href="#mdc837d7db2" x="213.71405" y="150.610373" style="fill: #008000; stroke: #008000; stroke-linejoin: miter"/>
     <use xlink:href="#mdc837d7db2" x="216.78843" y="148.589405" style="fill: #008000; stroke: #008000; stroke-linejoin: miter"/>
     <use xlink:href="#mdc837d7db2" x="219.86281" y="146.568436" style="fill: #008000; stroke: #008000; stroke-linejoin: miter"/>
     <use xlink:href="#mdc837d7db2" x="222.93719" y="144.547467" style="fill: #008000; stroke: #008000; stroke-linejoin: miter"/>
     <use xlink:href="#mdc837d7db2" x="226.01157" y="142.526498" style="fill: #008000; stroke: #008000; stroke-linejoin: miter"/>
     <use xlink:href="#mdc837d7db2" x="229.08595" y="140.50553" style="fill: #008000; stroke: #008000; stroke-linejoin: miter"/>
     <use xlink:href="#mdc837d7db2" x="232.160331" y="138.484561" style="fill: #008000; stroke: #008000; stroke-linejoin: miter"/>
     <use xlink:href="#mdc837d7db2" x="235.234711" y="136.463592" style="fill: #008000; stroke: #008000; stroke-linejoin: miter"/>
     <use xlink:href="#mdc837d7db2" x="238.309091" y="134.442623" style="fill: #008000; stroke: #008000; stroke-linejoin: miter"/>
     <use xlink:href="#mdc837d7db2" x="241.383471" y="132.421655" style="fill: #008000; stroke: #008000; stroke-linejoin: miter"/>
     <use xlink:href="#mdc837d7db2" x="244.457851" y="130.400686" style="fill: #008000; stroke: #008000; stroke-linejoin: miter"/>
     <use xlink:href="#mdc837d7db2" x="247.532231" y="128.379717" style="fill: #008000; stroke: #008000; stroke-linejoin: miter"/>
     <use xlink:href="#mdc837d7db2" x="250.606612" y="126.358748" style="fill: #008000; stroke: #008000; stroke-linejoin: miter"/>
     <use xlink:href="#mdc837d7db2" x="253.680992" y="124.33778" style="fill: #008000; stroke: #008000; stroke-linejoin: miter"/>
     <use xlink:href="#mdc837d7db2" x="256.755372" y="122.316811" style="fill: #008000; stroke: #008000; stroke-linejoin: miter"/>
     <use xlink:href="#mdc837d7db2" x="259.829752" y="120.295842" style="fill: #008000; stroke: #008000; stroke-linejoin: miter"/>
     <use xlink:href="#mdc837d7db2" x="262.904132" y="118.274873" style="fill: #008000; stroke: #008000; stroke-linejoin: miter"/>
     <use xlink:href="#mdc837d7db2" x="265.978512" y="116.253905" style="fill: #008000; stroke: #008000; stroke-linejoin: miter"/>
     <use xlink:href="#mdc837d7db2" x="269.052893" y="114.232936" style="fill: #008000; stroke: #008000; stroke-linejoin: miter"/>
     <use xlink:href="#mdc837d7db2" x="272.127273" y="112.211967" style="fill: #008000; stroke: #008000; stroke-linejoin: miter"/>
     <use xlink:href="#mdc837d7db2" x="275.201653" y="110.190998" style="fill: #008000; stroke: #008000; stroke-linejoin: miter"/>
     <use xlink:href="#mdc837d7db2" x="278.276033" y="108.17003" style="fill: #008000; stroke: #008000; stroke-linejoin: miter"/>
     <use xlink:href="#mdc837d7db2" x="281.350413" y="106.149061" style="fill: #008000; stroke: #008000; stroke-linejoin: miter"/>
     <use xlink:href="#mdc837d7db2" x="284.424793" y="104.128092" style="fill: #008000; stroke: #008000; stroke-linejoin: miter"/>
     <use xlink:href="#mdc837d7db2" x="287.499174" y="102.107123" style="fill: #008000; stroke: #008000; stroke-linejoin: miter"/>
     <use xlink:href="#mdc837d7db2" x="290.573554" y="100.086155" style="fill: #008000; stroke: #008000; stroke-linejoin: miter"/>
     <use xlink:href="#mdc837d7db2" x="293.647934" y="98.065186" style="fill: #008000; stroke: #008000; stroke-linejoin: miter"/>
     <use xlink:href="#mdc837d7db2" x="296.722314" y="96.044217" style="fill: #008000; stroke: #008000; stroke-linejoin: miter"/>
     <use xlink:href="#mdc837d7db2" x="299.796694" y="94.023248" style="fill: #008000; stroke: #008000; stroke-linejoin: miter"/>
     <use xlink:href="#mdc837d7db2" x="302.871074" y="92.00228" style="fill: #008000; stroke: #008000; stroke-linejoin: miter"/>
     <use xlink:href="#mdc837d7db2" x="305.945455" y="89.981311" style="fill: #008000; stroke: #008000; stroke-linejoin: miter"/>
     <use xlink:href="#mdc837d7db2" x="309.019835" y="87.960342" style="fill: #008000; stroke: #008000; stroke-linejoin: miter"/>
     <use xlink:href="#mdc837d7db2" x="312.094215" y="85.939373" style="fill: #008000; stroke: #008000; stroke-linejoin: miter"/>
     <use xlink:href="#mdc837d7db2" x="315.168595" y="83.918405" style="fill: #008000; stroke: #008000; stroke-linejoin: miter"/>
     <use xlink:href="#mdc837d7db2" x="318.242975" y="81.897436" style="fill: #008000; stroke: #008000; stroke-linejoin: miter"/>
     <use xlink:href="#mdc837d7db2" x="321.317355" y="79.876467" style="fill: #008000; stroke: #008000; stroke-linejoin: miter"/>
     <use xlink:href="#mdc837d7db2" x="324.391736" y="77.855498" style="fill: #008000; stroke: #008000; stroke-linejoin: miter"/>
     <use xlink:href="#mdc837d7db2" x="327.466116" y="75.83453" style="fill: #008000; stroke: #008000; stroke-linejoin: miter"/>
     <use xlink:href="#mdc837d7db2" x="330.540496" y="73.813561" style="fill: #008000; stroke: #008000; stroke-linejoin: miter"/>
     <use xlink:href="#mdc837d7db2" x="333.614876" y="71.792592" style="fill: #008000; stroke: #008000; stroke-linejoin: miter"/>
     <use xlink:href="#mdc837d7db2" x="336.689256" y="69.771623" style="fill: #008000; stroke: #008000; stroke-linejoin: miter"/>
     <use xlink:href="#mdc837d7db2" x="339.763636" y="67.750655" style="fill: #008000; stroke: #008000; stroke-linejoin: miter"/>
     <use xlink:href="#mdc837d7db2" x="342.838017" y="65.729686" style="fill: #008000; stroke: #008000; stroke-linejoin: miter"/>
     <use xlink:href="#mdc837d7db2" x="345.912397" y="63.708717" style="fill: #008000; stroke: #008000; stroke-linejoin: miter"/>
     <use xlink:href="#mdc837d7db2" x="348.986777" y="61.687748" style="fill: #008000; stroke: #008000; stroke-linejoin: miter"/>
     <use xlink:href="#mdc837d7db2" x="352.061157" y="59.66678" style="fill: #008000; stroke: #008000; stroke-linejoin: miter"/>
     <use xlink:href="#mdc837d7db2" x="355.135537" y="57.645811" style="fill: #008000; stroke: #008000; stroke-linejoin: miter"/>
     <use xlink:href="#mdc837d7db2" x="358.209917" y="55.624842" style="fill: #008000; stroke: #008000; stroke-linejoin: miter"/>
     <use xlink:href="#mdc837d7db2" x="361.284298" y="53.603873" style="fill: #008000; stroke: #008000; stroke-linejoin: miter"/>
     <use xlink:href="#mdc837d7db2" x="364.358678" y="51.582905" style="fill: #008000; stroke: #008000; stroke-linejoin: miter"/>
     <use xlink:href="#mdc837d7db2" x="367.433058" y="49.561936" style="fill: #008000; stroke: #008000; stroke-linejoin: miter"/>
     <use xlink:href="#mdc837d7db2" x="370.507438" y="47.540967" style="fill: #008000; stroke: #008000; stroke-linejoin: miter"/>
     <use xlink:href="#mdc837d7db2" x="373.581818" y="45.519998" style="fill: #008000; stroke: #008000; stroke-linejoin: miter"/>
    </g>
   </g>
   <g id="line2d_26">
    <path d="M 69.218182 246.24 
L 72.292562 243.767029 
L 75.366942 240.827906 
L 78.441322 239.988462 
L 81.515702 237.359157 
L 84.590083 235.182804 
L 87.664463 232.912355 
L 90.738843 231.018756 
L 93.813223 228.893652 
L 96.887603 227.279159 
L 99.961983 225.715103 
L 103.036364 223.531656 
L 106.110744 221.136256 
L 109.185124 219.184107 
L 112.259504 217.523489 
L 115.333884 215.100534 
L 118.408264 213.181755 
L 121.482645 211.55052 
L 124.557025 208.893883 
L 127.631405 207.177193 
L 130.705785 205.585384 
L 133.780165 203.437806 
L 136.854545 201.34655 
L 139.928926 199.219068 
L 143.003306 196.911697 
L 146.077686 195.067022 
L 149.152066 193.383353 
L 152.226446 191.449529 
L 155.300826 188.774272 
L 158.375207 186.6568 
L 161.449587 185.064799 
L 164.523967 182.778965 
L 167.598347 180.737091 
L 170.672727 178.676525 
L 173.747107 177.511447 
L 176.821488 175.098235 
L 179.895868 173.313483 
L 182.970248 171.206272 
L 186.044628 169.381356 
L 189.119008 166.899673 
L 192.193388 164.781782 
L 195.267769 162.633079 
L 198.342149 160.263425 
L 201.416529 159.050665 
L 204.490909 156.763692 
L 207.565289 155.293404 
L 210.639669 152.599999 
L 213.71405 150.282795 
L 216.78843 147.556532 
L 219.86281 146.443718 
L 222.93719 144.868985 
L 226.01157 142.252365 
L 229.08595 140.808643 
L 232.160331 138.372119 
L 235.234711 136.482898 
L 238.309091 134.441391 
L 241.383471 132.421982 
L 244.457851 130.515012 
L 247.532231 128.072798 
L 250.606612 127.014665 
L 253.680992 123.963067 
L 256.755372 121.959432 
L 259.829752 119.812123 
L 262.904132 118.48397 
L 265.978512 116.160949 
L 269.052893 114.448276 
L 272.127273 112.604857 
L 275.201653 109.661387 
L 278.276033 108.408332 
L 281.350413 106.437135 
L 284.424793 104.369633 
L 287.499174 101.535885 
L 290.573554 99.628449 
L 293.647934 97.941883 
L 296.722314 95.737989 
L 299.796694 93.072333 
L 302.871074 91.937094 
L 305.945455 90.875922 
L 309.019835 87.531138 
L 312.094215 86.193237 
L 315.168595 84.378084 
L 318.242975 81.961027 
L 321.317355 80.26504 
L 324.391736 76.681081 
L 327.466116 75.679888 
L 330.540496 73.491684 
L 333.614876 72.213227 
L 336.689256 69.48492 
L 339.763636 67.208535 
L 342.838017 65.697973 
L 345.912397 63.822296 
L 348.986777 62.254161 
L 352.061157 60.154601 
L 355.135537 57.273607 
L 358.209917 55.885738 
L 361.284298 52.937433 
L 364.358678 51.246315 
L 367.433058 49.935441 
L 370.507438 47.523789 
L 373.581818 44.64 
" clip-path="url(#pc78e69c398)" style="fill: none; stroke: #0000ff; stroke-width: 1.5; stroke-linecap: square"/>
    <defs>
     <path id="m3da223e9fb" d="M -3 3 
L 3 3 
L 3 -3 
L -3 -3 
z
" style="stroke: #0000ff; stroke-linejoin: miter"/>
    </defs>
    <g clip-path="url(#pc78e69c398)">
     <use xlink:href="#m3da223e9fb" x="69.218182" y="246.24" style="fill: #0000ff; stroke: #0000ff; stroke-linejoin: miter"/>
     <use xlink:href="#m3da223e9fb" x="72.292562" y="243.767029" style="fill: #0000ff; stroke: #0000ff; stroke-linejoin: miter"/>
     <use xlink:href="#m3da223e9fb" x="75.366942" y="240.827906" style="fill: #0000ff; stroke: #0000ff; stroke-linejoin: miter"/>
     <use xlink:href="#m3da223e9fb" x="78.441322" y="239.988462" style="fill: #0000ff; stroke: #0000ff; stroke-linejoin: miter"/>
     <use xlink:href="#m3da223e9fb" x="81.515702" y="237.359157" style="fill: #0000ff; stroke: #0000ff; stroke-linejoin: miter"/>
     <use xlink:href="#m3da223e9fb" x="84.590083" y="235.182804" style="fill: #0000ff; stroke: #0000ff; stroke-linejoin: miter"/>
     <use xlink:href="#m3da223e9fb" x="87.664463" y="232.912355" style="fill: #0000ff; stroke: #0000ff; stroke-linejoin: miter"/>
     <use xlink:href="#m3da223e9fb" x="90.738843" y="231.018756" style="fill: #0000ff; stroke: #0000ff; stroke-linejoin: miter"/>
     <use xlink:href="#m3da223e9fb" x="93.813223" y="228.893652" style="fill: #0000ff; stroke: #0000ff; stroke-linejoin: miter"/>
     <use xlink:href="#m3da223e9fb" x="96.887603" y="227.279159" style="fill: #0000ff; stroke: #0000ff; stroke-linejoin: miter"/>
     <use xlink:href="#m3da223e9fb" x="99.961983" y="225.715103" style="fill: #0000ff; stroke: #0000ff; stroke-linejoin: miter"/>
     <use xlink:href="#m3da223e9fb" x="103.036364" y="223.531656" style="fill: #0000ff; stroke: #0000ff; stroke-linejoin: miter"/>
     <use xlink:href="#m3da223e9fb" x="106.110744" y="221.136256" style="fill: #0000ff; stroke: #0000ff; stroke-linejoin: miter"/>
     <use xlink:href="#m3da223e9fb" x="109.185124" y="219.184107" style="fill: #0000ff; stroke: #0000ff; stroke-linejoin: miter"/>
     <use xlink:href="#m3da223e9fb" x="112.259504" y="217.523489" style="fill: #0000ff; stroke: #0000ff; stroke-linejoin: miter"/>
     <use xlink:href="#m3da223e9fb" x="115.333884" y="215.100534" style="fill: #0000ff; stroke: #0000ff; stroke-linejoin: miter"/>
     <use xlink:href="#m3da223e9fb" x="118.408264" y="213.181755" style="fill: #0000ff; stroke: #0000ff; stroke-linejoin: miter"/>
     <use xlink:href="#m3da223e9fb" x="121.482645" y="211.55052" style="fill: #0000ff; stroke: #0000ff; stroke-linejoin: miter"/>
     <use xlink:href="#m3da223e9fb" x="124.557025" y="208.893883" style="fill: #0000ff; stroke: #0000ff; stroke-linejoin: miter"/>
     <use xlink:href="#m3da223e9fb" x="127.631405" y="207.177193" style="fill: #0000ff; stroke: #0000ff; stroke-linejoin: miter"/>
     <use xlink:href="#m3da223e9fb" x="130.705785" y="205.585384" style="fill: #0000ff; stroke: #0000ff; stroke-linejoin: miter"/>
     <use xlink:href="#m3da223e9fb" x="133.780165" y="203.437806" style="fill: #0000ff; stroke: #0000ff; stroke-linejoin: miter"/>
     <use xlink:href="#m3da223e9fb" x="136.854545" y="201.34655" style="fill: #0000ff; stroke: #0000ff; stroke-linejoin: miter"/>
     <use xlink:href="#m3da223e9fb" x="139.928926" y="199.219068" style="fill: #0000ff; stroke: #0000ff; stroke-linejoin: miter"/>
     <use xlink:href="#m3da223e9fb" x="143.003306" y="196.911697" style="fill: #0000ff; stroke: #0000ff; stroke-linejoin: miter"/>
     <use xlink:href="#m3da223e9fb" x="146.077686" y="195.067022" style="fill: #0000ff; stroke: #0000ff; stroke-linejoin: miter"/>
     <use xlink:href="#m3da223e9fb" x="149.152066" y="193.383353" style="fill: #0000ff; stroke: #0000ff; stroke-linejoin: miter"/>
     <use xlink:href="#m3da223e9fb" x="152.226446" y="191.449529" style="fill: #0000ff; stroke: #0000ff; stroke-linejoin: miter"/>
     <use xlink:href="#m3da223e9fb" x="155.300826" y="188.774272" style="fill: #0000ff; stroke: #0000ff; stroke-linejoin: miter"/>
     <use xlink:href="#m3da223e9fb" x="158.375207" y="186.6568" style="fill: #0000ff; stroke: #0000ff; stroke-linejoin: miter"/>
     <use xlink:href="#m3da223e9fb" x="161.449587" y="185.064799" style="fill: #0000ff; stroke: #0000ff; stroke-linejoin: miter"/>
     <use xlink:href="#m3da223e9fb" x="164.523967" y="182.778965" style="fill: #0000ff; stroke: #0000ff; stroke-linejoin: miter"/>
     <use xlink:href="#m3da223e9fb" x="167.598347" y="180.737091" style="fill: #0000ff; stroke: #0000ff; stroke-linejoin: miter"/>
     <use xlink:href="#m3da223e9fb" x="170.672727" y="178.676525" style="fill: #0000ff; stroke: #0000ff; stroke-linejoin: miter"/>
     <use xlink:href="#m3da223e9fb" x="173.747107" y="177.511447" style="fill: #0000ff; stroke: #0000ff; stroke-linejoin: miter"/>
     <use xlink:href="#m3da223e9fb" x="176.821488" y="175.098235" style="fill: #0000ff; stroke: #0000ff; stroke-linejoin: miter"/>
     <use xlink:href="#m3da223e9fb" x="179.895868" y="173.313483" style="fill: #0000ff; stroke: #0000ff; stroke-linejoin: miter"/>
     <use xlink:href="#m3da223e9fb" x="182.970248" y="171.206272" style="fill: #0000ff; stroke: #0000ff; stroke-linejoin: miter"/>
     <use xlink:href="#m3da223e9fb" x="186.044628" y="169.381356" style="fill: #0000ff; stroke: #0000ff; stroke-linejoin: miter"/>
     <use xlink:href="#m3da223e9fb" x="189.119008" y="166.899673" style="fill: #0000ff; stroke: #0000ff; stroke-linejoin: miter"/>
     <use xlink:href="#m3da223e9fb" x="192.193388" y="164.781782" style="fill: #0000ff; stroke: #0000ff; stroke-linejoin: miter"/>
     <use xlink:href="#m3da223e9fb" x="195.267769" y="162.633079" style="fill: #0000ff; stroke: #0000ff; stroke-linejoin: miter"/>
     <use xlink:href="#m3da223e9fb" x="198.342149" y="160.263425" style="fill: #0000ff; stroke: #0000ff; stroke-linejoin: miter"/>
     <use xlink:href="#m3da223e9fb" x="201.416529" y="159.050665" style="fill: #0000ff; stroke: #0000ff; stroke-linejoin: miter"/>
     <use xlink:href="#m3da223e9fb" x="204.490909" y="156.763692" style="fill: #0000ff; stroke: #0000ff; stroke-linejoin: miter"/>
     <use xlink:href="#m3da223e9fb" x="207.565289" y="155.293404" style="fill: #0000ff; stroke: #0000ff; stroke-linejoin: miter"/>
     <use xlink:href="#m3da223e9fb" x="210.639669" y="152.599999" style="fill: #0000ff; stroke: #0000ff; stroke-linejoin: miter"/>
     <use xlink:href="#m3da223e9fb" x="213.71405" y="150.282795" style="fill: #0000ff; stroke: #0000ff; stroke-linejoin: miter"/>
     <use xlink:href="#m3da223e9fb" x="216.78843" y="147.556532" style="fill: #0000ff; stroke: #0000ff; stroke-linejoin: miter"/>
     <use xlink:href="#m3da223e9fb" x="219.86281" y="146.443718" style="fill: #0000ff; stroke: #0000ff; stroke-linejoin: miter"/>
     <use xlink:href="#m3da223e9fb" x="222.93719" y="144.868985" style="fill: #0000ff; stroke: #0000ff; stroke-linejoin: miter"/>
     <use xlink:href="#m3da223e9fb" x="226.01157" y="142.252365" style="fill: #0000ff; stroke: #0000ff; stroke-linejoin: miter"/>
     <use xlink:href="#m3da223e9fb" x="229.08595" y="140.808643" style="fill: #0000ff; stroke: #0000ff; stroke-linejoin: miter"/>
     <use xlink:href="#m3da223e9fb" x="232.160331" y="138.372119" style="fill: #0000ff; stroke: #0000ff; stroke-linejoin: miter"/>
     <use xlink:href="#m3da223e9fb" x="235.234711" y="136.482898" style="fill: #0000ff; stroke: #0000ff; stroke-linejoin: miter"/>
     <use xlink:href="#m3da223e9fb" x="238.309091" y="134.441391" style="fill: #0000ff; stroke: #0000ff; stroke-linejoin: miter"/>
     <use xlink:href="#m3da223e9fb" x="241.383471" y="132.421982" style="fill: #0000ff; stroke: #0000ff; stroke-linejoin: miter"/>
     <use xlink:href="#m3da223e9fb" x="244.457851" y="130.515012" style="fill: #0000ff; stroke: #0000ff; stroke-linejoin: miter"/>
     <use xlink:href="#m3da223e9fb" x="247.532231" y="128.072798" style="fill: #0000ff; stroke: #0000ff; stroke-linejoin: miter"/>
     <use xlink:href="#m3da223e9fb" x="250.606612" y="127.014665" style="fill: #0000ff; stroke: #0000ff; stroke-linejoin: miter"/>
     <use xlink:href="#m3da223e9fb" x="253.680992" y="123.963067" style="fill: #0000ff; stroke: #0000ff; stroke-linejoin: miter"/>
     <use xlink:href="#m3da223e9fb" x="256.755372" y="121.959432" style="fill: #0000ff; stroke: #0000ff; stroke-linejoin: miter"/>
     <use xlink:href="#m3da223e9fb" x="259.829752" y="119.812123" style="fill: #0000ff; stroke: #0000ff; stroke-linejoin: miter"/>
     <use xlink:href="#m3da223e9fb" x="262.904132" y="118.48397" style="fill: #0000ff; stroke: #0000ff; stroke-linejoin: miter"/>
     <use xlink:href="#m3da223e9fb" x="265.978512" y="116.160949" style="fill: #0000ff; stroke: #0000ff; stroke-linejoin: miter"/>
     <use xlink:href="#m3da223e9fb" x="269.052893" y="114.448276" style="fill: #0000ff; stroke: #0000ff; stroke-linejoin: miter"/>
     <use xlink:href="#m3da223e9fb" x="272.127273" y="112.604857" style="fill: #0000ff; stroke: #0000ff; stroke-linejoin: miter"/>
     <use xlink:href="#m3da223e9fb" x="275.201653" y="109.661387" style="fill: #0000ff; stroke: #0000ff; stroke-linejoin: miter"/>
     <use xlink:href="#m3da223e9fb" x="278.276033" y="108.408332" style="fill: #0000ff; stroke: #0000ff; stroke-linejoin: miter"/>
     <use xlink:href="#m3da223e9fb" x="281.350413" y="106.437135" style="fill: #0000ff; stroke: #0000ff; stroke-linejoin: miter"/>
     <use xlink:href="#m3da223e9fb" x="284.424793" y="104.369633" style="fill: #0000ff; stroke: #0000ff; stroke-linejoin: miter"/>
     <use xlink:href="#m3da223e9fb" x="287.499174" y="101.535885" style="fill: #0000ff; stroke: #0000ff; stroke-linejoin: miter"/>
     <use xlink:href="#m3da223e9fb" x="290.573554" y="99.628449" style="fill: #0000ff; stroke: #0000ff; stroke-linejoin: miter"/>
     <use xlink:href="#m3da223e9fb" x="293.647934" y="97.941883" style="fill: #0000ff; stroke: #0000ff; stroke-linejoin: miter"/>
     <use xlink:href="#m3da223e9fb" x="296.722314" y="95.737989" style="fill: #0000ff; stroke: #0000ff; stroke-linejoin: miter"/>
     <use xlink:href="#m3da223e9fb" x="299.796694" y="93.072333" style="fill: #0000ff; stroke: #0000ff; stroke-linejoin: miter"/>
     <use xlink:href="#m3da223e9fb" x="302.871074" y="91.937094" style="fill: #0000ff; stroke: #0000ff; stroke-linejoin: miter"/>
     <use xlink:href="#m3da223e9fb" x="305.945455" y="90.875922" style="fill: #0000ff; stroke: #0000ff; stroke-linejoin: miter"/>
     <use xlink:href="#m3da223e9fb" x="309.019835" y="87.531138" style="fill: #0000ff; stroke: #0000ff; stroke-linejoin: miter"/>
     <use xlink:href="#m3da223e9fb" x="312.094215" y="86.193237" style="fill: #0000ff; stroke: #0000ff; stroke-linejoin: miter"/>
     <use xlink:href="#m3da223e9fb" x="315.168595" y="84.378084" style="fill: #0000ff; stroke: #0000ff; stroke-linejoin: miter"/>
     <use xlink:href="#m3da223e9fb" x="318.242975" y="81.961027" style="fill: #0000ff; stroke: #0000ff; stroke-linejoin: miter"/>
     <use xlink:href="#m3da223e9fb" x="321.317355" y="80.26504" style="fill: #0000ff; stroke: #0000ff; stroke-linejoin: miter"/>
     <use xlink:href="#m3da223e9fb" x="324.391736" y="76.681081" style="fill: #0000ff; stroke: #0000ff; stroke-linejoin: miter"/>
     <use xlink:href="#m3da223e9fb" x="327.466116" y="75.679888" style="fill: #0000ff; stroke: #0000ff; stroke-linejoin: miter"/>
     <use xlink:href="#m3da223e9fb" x="330.540496" y="73.491684" style="fill: #0000ff; stroke: #0000ff; stroke-linejoin: miter"/>
     <use xlink:href="#m3da223e9fb" x="333.614876" y="72.213227" style="fill: #0000ff; stroke: #0000ff; stroke-linejoin: miter"/>
     <use xlink:href="#m3da223e9fb" x="336.689256" y="69.48492" style="fill: #0000ff; stroke: #0000ff; stroke-linejoin: miter"/>
     <use xlink:href="#m3da223e9fb" x="339.763636" y="67.208535" style="fill: #0000ff; stroke: #0000ff; stroke-linejoin: miter"/>
     <use xlink:href="#m3da223e9fb" x="342.838017" y="65.697973" style="fill: #0000ff; stroke: #0000ff; stroke-linejoin: miter"/>
     <use xlink:href="#m3da223e9fb" x="345.912397" y="63.822296" style="fill: #0000ff; stroke: #0000ff; stroke-linejoin: miter"/>
     <use xlink:href="#m3da223e9fb" x="348.986777" y="62.254161" style="fill: #0000ff; stroke: #0000ff; stroke-linejoin: miter"/>
     <use xlink:href="#m3da223e9fb" x="352.061157" y="60.154601" style="fill: #0000ff; stroke: #0000ff; stroke-linejoin: miter"/>
     <use xlink:href="#m3da223e9fb" x="355.135537" y="57.273607" style="fill: #0000ff; stroke: #0000ff; stroke-linejoin: miter"/>
     <use xlink:href="#m3da223e9fb" x="358.209917" y="55.885738" style="fill: #0000ff; stroke: #0000ff; stroke-linejoin: miter"/>
     <use xlink:href="#m3da223e9fb" x="361.284298" y="52.937433" style="fill: #0000ff; stroke: #0000ff; stroke-linejoin: miter"/>
     <use xlink:href="#m3da223e9fb" x="364.358678" y="51.246315" style="fill: #0000ff; stroke: #0000ff; stroke-linejoin: miter"/>
     <use xlink:href="#m3da223e9fb" x="367.433058" y="49.935441" style="fill: #0000ff; stroke: #0000ff; stroke-linejoin: miter"/>
     <use xlink:href="#m3da223e9fb" x="370.507438" y="47.523789" style="fill: #0000ff; stroke: #0000ff; stroke-linejoin: miter"/>
     <use xlink:href="#m3da223e9fb" x="373.581818" y="44.64" style="fill: #0000ff; stroke: #0000ff; stroke-linejoin: miter"/>
    </g>
   </g>
   <g id="line2d_27">
    <path d="M 69.218182 243.777196 
L 72.292562 242.727076 
L 75.366942 241.507847 
L 78.441322 240.36364 
L 81.515702 239.338755 
L 84.590083 238.406393 
L 87.664463 237.331748 
L 90.738843 236.175085 
L 93.813223 234.980492 
L 96.887603 233.771951 
L 99.961983 232.804293 
L 103.036364 231.736775 
L 106.110744 230.557888 
L 109.185124 229.328307 
L 112.259504 228.081353 
L 115.333884 226.73594 
L 118.408264 225.352752 
L 121.482645 223.962054 
L 124.557025 222.459538 
L 127.631405 220.948612 
L 130.705785 219.440267 
L 133.780165 217.878129 
L 136.854545 216.271885 
L 139.928926 214.621343 
L 143.003306 212.912607 
L 146.077686 211.195181 
L 149.152066 209.484612 
L 152.226446 207.755591 
L 155.300826 205.938424 
L 158.375207 204.094642 
L 161.449587 202.27666 
L 164.523967 200.415428 
L 167.598347 198.538145 
L 170.672727 196.644363 
L 173.747107 194.820838 
L 176.821488 192.941768 
L 179.895868 191.072217 
L 182.970248 189.180472 
L 186.044628 187.295453 
L 189.119008 185.35393 
L 192.193388 183.395871 
L 195.267769 181.419873 
L 198.342149 179.406585 
L 201.416529 177.469613 
L 204.490909 175.49945 
L 207.565289 173.576941 
L 210.639669 171.581162 
L 213.71405 169.554867 
L 216.78843 167.462032 
L 219.86281 165.462474 
L 222.93719 163.503366 
L 226.01157 161.481736 
L 229.08595 159.515106 
L 232.160331 157.503795 
L 235.234711 155.504113 
L 238.309091 153.500465 
L 241.383471 151.495329 
L 244.457851 149.499539 
L 247.532231 147.461289 
L 250.606612 145.516281 
L 253.680992 143.466011 
L 256.755372 141.420182 
L 259.829752 139.364702 
L 262.904132 137.378412 
L 265.978512 135.360093 
L 269.052893 133.37085 
L 272.127273 131.39548 
L 275.201653 129.328021 
L 278.276033 127.338033 
L 281.350413 125.349833 
L 284.424793 123.35409 
L 287.499174 121.278633 
L 290.573554 119.219159 
L 293.647934 117.195158 
L 296.722314 115.154045 
L 299.796694 113.053523 
L 302.871074 111.044823 
L 305.945455 109.126258 
L 309.019835 107.072023 
L 312.094215 105.08593 
L 315.168595 103.116097 
L 318.242975 101.103722 
L 321.317355 99.121444 
L 324.391736 96.986806 
L 327.466116 94.959987 
L 330.540496 92.917816 
L 333.614876 90.948294 
L 336.689256 88.906592 
L 339.763636 86.842566 
L 342.838017 84.831188 
L 345.912397 82.832719 
L 348.986777 80.875185 
L 352.061157 78.904141 
L 355.135537 76.846538 
L 358.209917 74.852643 
L 361.284298 72.767961 
L 364.358678 70.720716 
L 367.433058 68.743518 
L 370.507438 66.724993 
L 373.581818 64.62416 
" clip-path="url(#pc78e69c398)" style="fill: none; stroke: #ff0000; stroke-width: 1.5; stroke-linecap: square"/>
    <defs>
     <path id="m4c4787af1c" d="M 0 3 
C 0.795609 3 1.55874 2.683901 2.12132 2.12132 
C 2.683901 1.55874 3 0.795609 3 0 
C 3 -0.795609 2.683901 -1.55874 2.12132 -2.12132 
C 1.55874 -2.683901 0.795609 -3 0 -3 
C -0.795609 -3 -1.55874 -2.683901 -2.12132 -2.12132 
C -2.683901 -1.55874 -3 -0.795609 -3 0 
C -3 0.795609 -2.683901 1.55874 -2.12132 2.12132 
C -1.55874 2.683901 -0.795609 3 0 3 
z
" style="stroke: #ff0000"/>
    </defs>
    <g clip-path="url(#pc78e69c398)">
     <use xlink:href="#m4c4787af1c" x="69.218182" y="243.777196" style="fill: #ff0000; stroke: #ff0000"/>
     <use xlink:href="#m4c4787af1c" x="72.292562" y="242.727076" style="fill: #ff0000; stroke: #ff0000"/>
     <use xlink:href="#m4c4787af1c" x="75.366942" y="241.507847" style="fill: #ff0000; stroke: #ff0000"/>
     <use xlink:href="#m4c4787af1c" x="78.441322" y="240.36364" style="fill: #ff0000; stroke: #ff0000"/>
     <use xlink:href="#m4c4787af1c" x="81.515702" y="239.338755" style="fill: #ff0000; stroke: #ff0000"/>
     <use xlink:href="#m4c4787af1c" x="84.590083" y="238.406393" style="fill: #ff0000; stroke: #ff0000"/>
     <use xlink:href="#m4c4787af1c" x="87.664463" y="237.331748" style="fill: #ff0000; stroke: #ff0000"/>
     <use xlink:href="#m4c4787af1c" x="90.738843" y="236.175085" style="fill: #ff0000; stroke: #ff0000"/>
     <use xlink:href="#m4c4787af1c" x="93.813223" y="234.980492" style="fill: #ff0000; stroke: #ff0000"/>
     <use xlink:href="#m4c4787af1c" x="96.887603" y="233.771951" style="fill: #ff0000; stroke: #ff0000"/>
     <use xlink:href="#m4c4787af1c" x="99.961983" y="232.804293" style="fill: #ff0000; stroke: #ff0000"/>
     <use xlink:href="#m4c4787af1c" x="103.036364" y="231.736775" style="fill: #ff0000; stroke: #ff0000"/>
     <use xlink:href="#m4c4787af1c" x="106.110744" y="230.557888" style="fill: #ff0000; stroke: #ff0000"/>
     <use xlink:href="#m4c4787af1c" x="109.185124" y="229.328307" style="fill: #ff0000; stroke: #ff0000"/>
     <use xlink:href="#m4c4787af1c" x="112.259504" y="228.081353" style="fill: #ff0000; stroke: #ff0000"/>
     <use xlink:href="#m4c4787af1c" x="115.333884" y="226.73594" style="fill: #ff0000; stroke: #ff0000"/>
     <use xlink:href="#m4c4787af1c" x="118.408264" y="225.352752" style="fill: #ff0000; stroke: #ff0000"/>
     <use xlink:href="#m4c4787af1c" x="121.482645" y="223.962054" style="fill: #ff0000; stroke: #ff0000"/>
     <use xlink:href="#m4c4787af1c" x="124.557025" y="222.459538" style="fill: #ff0000; stroke: #ff0000"/>
     <use xlink:href="#m4c4787af1c" x="127.631405" y="220.948612" style="fill: #ff0000; stroke: #ff0000"/>
     <use xlink:href="#m4c4787af1c" x="130.705785" y="219.440267" style="fill: #ff0000; stroke: #ff0000"/>
     <use xlink:href="#m4c4787af1c" x="133.780165" y="217.878129" style="fill: #ff0000; stroke: #ff0000"/>
     <use xlink:href="#m4c4787af1c" x="136.854545" y="216.271885" style="fill: #ff0000; stroke: #ff0000"/>
     <use xlink:href="#m4c4787af1c" x="139.928926" y="214.621343" style="fill: #ff0000; stroke: #ff0000"/>
     <use xlink:href="#m4c4787af1c" x="143.003306" y="212.912607" style="fill: #ff0000; stroke: #ff0000"/>
     <use xlink:href="#m4c4787af1c" x="146.077686" y="211.195181" style="fill: #ff0000; stroke: #ff0000"/>
     <use xlink:href="#m4c4787af1c" x="149.152066" y="209.484612" style="fill: #ff0000; stroke: #ff0000"/>
     <use xlink:href="#m4c4787af1c" x="152.226446" y="207.755591" style="fill: #ff0000; stroke: #ff0000"/>
     <use xlink:href="#m4c4787af1c" x="155.300826" y="205.938424" style="fill: #ff0000; stroke: #ff0000"/>
     <use xlink:href="#m4c4787af1c" x="158.375207" y="204.094642" style="fill: #ff0000; stroke: #ff0000"/>
     <use xlink:href="#m4c4787af1c" x="161.449587" y="202.27666" style="fill: #ff0000; stroke: #ff0000"/>
     <use xlink:href="#m4c4787af1c" x="164.523967" y="200.415428" style="fill: #ff0000; stroke: #ff0000"/>
     <use xlink:href="#m4c4787af1c" x="167.598347" y="198.538145" style="fill: #ff0000; stroke: #ff0000"/>
     <use xlink:href="#m4c4787af1c" x="170.672727" y="196.644363" style="fill: #ff0000; stroke: #ff0000"/>
     <use xlink:href="#m4c4787af1c" x="173.747107" y="194.820838" style="fill: #ff0000; stroke: #ff0000"/>
     <use xlink:href="#m4c4787af1c" x="176.821488" y="192.941768" style="fill: #ff0000; stroke: #ff0000"/>
     <use xlink:href="#m4c4787af1c" x="179.895868" y="191.072217" style="fill: #ff0000; stroke: #ff0000"/>
     <use xlink:href="#m4c4787af1c" x="182.970248" y="189.180472" style="fill: #ff0000; stroke: #ff0000"/>
     <use xlink:href="#m4c4787af1c" x="186.044628" y="187.295453" style="fill: #ff0000; stroke: #ff0000"/>
     <use xlink:href="#m4c4787af1c" x="189.119008" y="185.35393" style="fill: #ff0000; stroke: #ff0000"/>
     <use xlink:href="#m4c4787af1c" x="192.193388" y="183.395871" style="fill: #ff0000; stroke: #ff0000"/>
     <use xlink:href="#m4c4787af1c" x="195.267769" y="181.419873" style="fill: #ff0000; stroke: #ff0000"/>
     <use xlink:href="#m4c4787af1c" x="198.342149" y="179.406585" style="fill: #ff0000; stroke: #ff0000"/>
     <use xlink:href="#m4c4787af1c" x="201.416529" y="177.469613" style="fill: #ff0000; stroke: #ff0000"/>
     <use xlink:href="#m4c4787af1c" x="204.490909" y="175.49945" style="fill: #ff0000; stroke: #ff0000"/>
     <use xlink:href="#m4c4787af1c" x="207.565289" y="173.576941" style="fill: #ff0000; stroke: #ff0000"/>
     <use xlink:href="#m4c4787af1c" x="210.639669" y="171.581162" style="fill: #ff0000; stroke: #ff0000"/>
     <use xlink:href="#m4c4787af1c" x="213.71405" y="169.554867" style="fill: #ff0000; stroke: #ff0000"/>
     <use xlink:href="#m4c4787af1c" x="216.78843" y="167.462032" style="fill: #ff0000; stroke: #ff0000"/>
     <use xlink:href="#m4c4787af1c" x="219.86281" y="165.462474" style="fill: #ff0000; stroke: #ff0000"/>
     <use xlink:href="#m4c4787af1c" x="222.93719" y="163.503366" style="fill: #ff0000; stroke: #ff0000"/>
     <use xlink:href="#m4c4787af1c" x="226.01157" y="161.481736" style="fill: #ff0000; stroke: #ff0000"/>
     <use xlink:href="#m4c4787af1c" x="229.08595" y="159.515106" style="fill: #ff0000; stroke: #ff0000"/>
     <use xlink:href="#m4c4787af1c" x="232.160331" y="157.503795" style="fill: #ff0000; stroke: #ff0000"/>
     <use xlink:href="#m4c4787af1c" x="235.234711" y="155.504113" style="fill: #ff0000; stroke: #ff0000"/>
     <use xlink:href="#m4c4787af1c" x="238.309091" y="153.500465" style="fill: #ff0000; stroke: #ff0000"/>
     <use xlink:href="#m4c4787af1c" x="241.383471" y="151.495329" style="fill: #ff0000; stroke: #ff0000"/>
     <use xlink:href="#m4c4787af1c" x="244.457851" y="149.499539" style="fill: #ff0000; stroke: #ff0000"/>
     <use xlink:href="#m4c4787af1c" x="247.532231" y="147.461289" style="fill: #ff0000; stroke: #ff0000"/>
     <use xlink:href="#m4c4787af1c" x="250.606612" y="145.516281" style="fill: #ff0000; stroke: #ff0000"/>
     <use xlink:href="#m4c4787af1c" x="253.680992" y="143.466011" style="fill: #ff0000; stroke: #ff0000"/>
     <use xlink:href="#m4c4787af1c" x="256.755372" y="141.420182" style="fill: #ff0000; stroke: #ff0000"/>
     <use xlink:href="#m4c4787af1c" x="259.829752" y="139.364702" style="fill: #ff0000; stroke: #ff0000"/>
     <use xlink:href="#m4c4787af1c" x="262.904132" y="137.378412" style="fill: #ff0000; stroke: #ff0000"/>
     <use xlink:href="#m4c4787af1c" x="265.978512" y="135.360093" style="fill: #ff0000; stroke: #ff0000"/>
     <use xlink:href="#m4c4787af1c" x="269.052893" y="133.37085" style="fill: #ff0000; stroke: #ff0000"/>
     <use xlink:href="#m4c4787af1c" x="272.127273" y="131.39548" style="fill: #ff0000; stroke: #ff0000"/>
     <use xlink:href="#m4c4787af1c" x="275.201653" y="129.328021" style="fill: #ff0000; stroke: #ff0000"/>
     <use xlink:href="#m4c4787af1c" x="278.276033" y="127.338033" style="fill: #ff0000; stroke: #ff0000"/>
     <use xlink:href="#m4c4787af1c" x="281.350413" y="125.349833" style="fill: #ff0000; stroke: #ff0000"/>
     <use xlink:href="#m4c4787af1c" x="284.424793" y="123.35409" style="fill: #ff0000; stroke: #ff0000"/>
     <use xlink:href="#m4c4787af1c" x="287.499174" y="121.278633" style="fill: #ff0000; stroke: #ff0000"/>
     <use xlink:href="#m4c4787af1c" x="290.573554" y="119.219159" style="fill: #ff0000; stroke: #ff0000"/>
     <use xlink:href="#m4c4787af1c" x="293.647934" y="117.195158" style="fill: #ff0000; stroke: #ff0000"/>
     <use xlink:href="#m4c4787af1c" x="296.722314" y="115.154045" style="fill: #ff0000; stroke: #ff0000"/>
     <use xlink:href="#m4c4787af1c" x="299.796694" y="113.053523" style="fill: #ff0000; stroke: #ff0000"/>
     <use xlink:href="#m4c4787af1c" x="302.871074" y="111.044823" style="fill: #ff0000; stroke: #ff0000"/>
     <use xlink:href="#m4c4787af1c" x="305.945455" y="109.126258" style="fill: #ff0000; stroke: #ff0000"/>
     <use xlink:href="#m4c4787af1c" x="309.019835" y="107.072023" style="fill: #ff0000; stroke: #ff0000"/>
     <use xlink:href="#m4c4787af1c" x="312.094215" y="105.08593" style="fill: #ff0000; stroke: #ff0000"/>
     <use xlink:href="#m4c4787af1c" x="315.168595" y="103.116097" style="fill: #ff0000; stroke: #ff0000"/>
     <use xlink:href="#m4c4787af1c" x="318.242975" y="101.103722" style="fill: #ff0000; stroke: #ff0000"/>
     <use xlink:href="#m4c4787af1c" x="321.317355" y="99.121444" style="fill: #ff0000; stroke: #ff0000"/>
     <use xlink:href="#m4c4787af1c" x="324.391736" y="96.986806" style="fill: #ff0000; stroke: #ff0000"/>
     <use xlink:href="#m4c4787af1c" x="327.466116" y="94.959987" style="fill: #ff0000; stroke: #ff0000"/>
     <use xlink:href="#m4c4787af1c" x="330.540496" y="92.917816" style="fill: #ff0000; stroke: #ff0000"/>
     <use xlink:href="#m4c4787af1c" x="333.614876" y="90.948294" style="fill: #ff0000; stroke: #ff0000"/>
     <use xlink:href="#m4c4787af1c" x="336.689256" y="88.906592" style="fill: #ff0000; stroke: #ff0000"/>
     <use xlink:href="#m4c4787af1c" x="339.763636" y="86.842566" style="fill: #ff0000; stroke: #ff0000"/>
     <use xlink:href="#m4c4787af1c" x="342.838017" y="84.831188" style="fill: #ff0000; stroke: #ff0000"/>
     <use xlink:href="#m4c4787af1c" x="345.912397" y="82.832719" style="fill: #ff0000; stroke: #ff0000"/>
     <use xlink:href="#m4c4787af1c" x="348.986777" y="80.875185" style="fill: #ff0000; stroke: #ff0000"/>
     <use xlink:href="#m4c4787af1c" x="352.061157" y="78.904141" style="fill: #ff0000; stroke: #ff0000"/>
     <use xlink:href="#m4c4787af1c" x="355.135537" y="76.846538" style="fill: #ff0000; stroke: #ff0000"/>
     <use xlink:href="#m4c4787af1c" x="358.209917" y="74.852643" style="fill: #ff0000; stroke: #ff0000"/>
     <use xlink:href="#m4c4787af1c" x="361.284298" y="72.767961" style="fill: #ff0000; stroke: #ff0000"/>
     <use xlink:href="#m4c4787af1c" x="364.358678" y="70.720716" style="fill: #ff0000; stroke: #ff0000"/>
     <use xlink:href="#m4c4787af1c" x="367.433058" y="68.743518" style="fill: #ff0000; stroke: #ff0000"/>
     <use xlink:href="#m4c4787af1c" x="370.507438" y="66.724993" style="fill: #ff0000; stroke: #ff0000"/>
     <use xlink:href="#m4c4787af1c" x="373.581818" y="64.62416" style="fill: #ff0000; stroke: #ff0000"/>
    </g>
   </g>
   <g id="patch_3">
    <path d="M 54 256.32 
L 54 34.56 
" style="fill: none; stroke: #000000; stroke-width: 0.8; stroke-linejoin: miter; stroke-linecap: square"/>
   </g>
   <g id="patch_4">
    <path d="M 388.8 256.32 
L 388.8 34.56 
" style="fill: none; stroke: #000000; stroke-width: 0.8; stroke-linejoin: miter; stroke-linecap: square"/>
   </g>
   <g id="patch_5">
    <path d="M 54 256.32 
L 388.8 256.32 
" style="fill: none; stroke: #000000; stroke-width: 0.8; stroke-linejoin: miter; stroke-linecap: square"/>
   </g>
   <g id="patch_6">
    <path d="M 54 34.56 
L 388.8 34.56 
" style="fill: none; stroke: #000000; stroke-width: 0.8; stroke-linejoin: miter; stroke-linecap: square"/>
   </g>
   <g id="legend_1">
    <g id="patch_7">
     <path d="M 61 85.070938 
L 151.323438 85.070938 
Q 153.323438 85.070938 153.323438 83.070938 
L 153.323438 41.56 
Q 153.323438 39.56 151.323438 39.56 
L 61 39.56 
Q 59 39.56 59 41.56 
L 59 83.070938 
Q 59 85.070938 61 85.070938 
z
" style="fill: #ffffff; opacity: 0.8; stroke: #cccccc; stroke-linejoin: miter"/>
    </g>
    <g id="line2d_28">
     <path d="M 63 47.06 
L 73 47.06 
L 83 47.06 
" style="fill: none; stroke: #008000; stroke-width: 1.5; stroke-linecap: square"/>
     <g>
      <use xlink:href="#mdc837d7db2" x="73" y="47.06" style="fill: #008000; stroke: #008000; stroke-linejoin: miter"/>
     </g>
    </g>
    <g id="text_15">
     <!-- True values -->
     <g transform="translate(91 50.56) scale(0.1 -0.1)">
      <defs>
       <path id="STIXGeneral-Regular-76" d="M 3053 2880 
L 3053 2784 
Q 2906 2771 2835 2688 
Q 2765 2605 2637 2285 
L 1818 230 
Q 1690 -90 1638 -90 
Q 1587 -90 1523 77 
Q 1510 96 1497 141 
Q 1485 186 1472 211 
L 704 2048 
Q 499 2534 403 2652 
Q 307 2771 122 2784 
L 122 2880 
L 1376 2880 
L 1376 2784 
Q 1210 2771 1146 2732 
Q 1082 2694 1082 2611 
Q 1082 2509 1139 2368 
L 1792 730 
L 2426 2387 
Q 2464 2483 2464 2579 
Q 2464 2758 2163 2784 
L 2163 2880 
L 3053 2880 
z
" transform="scale(0.015625)"/>
       <path id="STIXGeneral-Regular-6c" d="M 1645 0 
L 134 0 
L 134 96 
Q 435 122 531 221 
Q 627 320 627 589 
L 627 3590 
Q 627 3821 569 3910 
Q 512 4000 358 4000 
Q 224 4000 122 3987 
L 122 4090 
Q 730 4237 1133 4371 
L 1165 4346 
L 1165 557 
Q 1165 288 1254 201 
Q 1344 115 1645 96 
L 1645 0 
z
" transform="scale(0.015625)"/>
      </defs>
      <use xlink:href="#STIXGeneral-Regular-54"/>
      <use xlink:href="#STIXGeneral-Regular-72" x="61.099991"/>
      <use xlink:href="#STIXGeneral-Regular-75" x="94.399979"/>
      <use xlink:href="#STIXGeneral-Regular-65" x="144.399963"/>
      <use xlink:href="#STIXGeneral-Regular-20" x="188.799957"/>
      <use xlink:href="#STIXGeneral-Regular-76" x="213.799942"/>
      <use xlink:href="#STIXGeneral-Regular-61" x="263.799927"/>
      <use xlink:href="#STIXGeneral-Regular-6c" x="308.199921"/>
      <use xlink:href="#STIXGeneral-Regular-75" x="335.999908"/>
      <use xlink:href="#STIXGeneral-Regular-65" x="385.999893"/>
      <use xlink:href="#STIXGeneral-Regular-73" x="430.399887"/>
     </g>
    </g>
    <g id="line2d_29">
     <path d="M 63 61.230312 
L 73 61.230312 
L 83 61.230312 
" style="fill: none; stroke: #0000ff; stroke-width: 1.5; stroke-linecap: square"/>
     <g>
      <use xlink:href="#m3da223e9fb" x="73" y="61.230312" style="fill: #0000ff; stroke: #0000ff; stroke-linejoin: miter"/>
     </g>
    </g>
    <g id="text_16">
     <!-- Measurements -->
     <g transform="translate(91 64.730312) scale(0.1 -0.1)">
      <use xlink:href="#STIXGeneral-Regular-4d"/>
      <use xlink:href="#STIXGeneral-Regular-65" x="88.899994"/>
      <use xlink:href="#STIXGeneral-Regular-61" x="133.299988"/>
      <use xlink:href="#STIXGeneral-Regular-73" x="177.699982"/>
      <use xlink:href="#STIXGeneral-Regular-75" x="216.599976"/>
      <use xlink:href="#STIXGeneral-Regular-72" x="266.59996"/>
      <use xlink:href="#STIXGeneral-Regular-65" x="299.899948"/>
      <use xlink:href="#STIXGeneral-Regular-6d" x="344.299942"/>
      <use xlink:href="#STIXGeneral-Regular-65" x="422.09993"/>
      <use xlink:href="#STIXGeneral-Regular-6e" x="466.499924"/>
      <use xlink:href="#STIXGeneral-Regular-74" x="516.499908"/>
      <use xlink:href="#STIXGeneral-Regular-73" x="544.299896"/>
     </g>
    </g>
    <g id="line2d_30">
     <path d="M 63 75.400625 
L 73 75.400625 
L 83 75.400625 
" style="fill: none; stroke: #ff0000; stroke-width: 1.5; stroke-linecap: square"/>
     <g>
      <use xlink:href="#m4c4787af1c" x="73" y="75.400625" style="fill: #ff0000; stroke: #ff0000"/>
     </g>
    </g>
    <g id="text_17">
     <!-- Estimates -->
     <g transform="translate(91 78.900625) scale(0.1 -0.1)">
      <defs>
       <path id="STIXGeneral-Regular-45" d="M 3821 1082 
L 3526 0 
L 77 0 
L 77 122 
Q 442 147 538 252 
Q 634 358 634 730 
L 634 3520 
Q 634 3878 534 3987 
Q 435 4096 77 4115 
L 77 4237 
L 3469 4237 
L 3494 3322 
L 3334 3322 
Q 3264 3750 3085 3872 
Q 2906 3994 2349 3994 
L 1510 3994 
Q 1370 3994 1328 3952 
Q 1286 3910 1286 3763 
L 1286 2355 
L 2253 2355 
Q 2656 2355 2787 2470 
Q 2918 2586 2976 2970 
L 3123 2970 
L 3123 1472 
L 2976 1472 
Q 2918 1875 2790 1984 
Q 2662 2093 2253 2093 
L 1286 2093 
L 1286 538 
Q 1286 346 1420 291 
Q 1555 237 1933 237 
L 2163 237 
Q 2848 237 3136 403 
Q 3424 570 3642 1082 
L 3821 1082 
z
" transform="scale(0.015625)"/>
       <path id="STIXGeneral-Regular-69" d="M 1152 4045 
Q 1152 3904 1056 3811 
Q 960 3718 819 3718 
Q 685 3718 592 3811 
Q 499 3904 499 4045 
Q 499 4179 595 4275 
Q 691 4371 826 4371 
Q 966 4371 1059 4275 
Q 1152 4179 1152 4045 
z
M 1619 0 
L 102 0 
L 102 96 
Q 435 115 521 211 
Q 608 307 608 666 
L 608 2118 
Q 608 2342 563 2432 
Q 518 2522 397 2522 
Q 243 2522 128 2490 
L 128 2592 
L 1120 2944 
L 1146 2918 
L 1146 672 
Q 1146 314 1226 218 
Q 1306 122 1619 96 
L 1619 0 
z
" transform="scale(0.015625)"/>
      </defs>
      <use xlink:href="#STIXGeneral-Regular-45"/>
      <use xlink:href="#STIXGeneral-Regular-73" x="61.099991"/>
      <use xlink:href="#STIXGeneral-Regular-74" x="99.999985"/>
      <use xlink:href="#STIXGeneral-Regular-69" x="127.799973"/>
      <use xlink:href="#STIXGeneral-Regular-6d" x="155.59996"/>
      <use xlink:href="#STIXGeneral-Regular-61" x="233.399948"/>
      <use xlink:href="#STIXGeneral-Regular-74" x="277.799942"/>
      <use xlink:href="#STIXGeneral-Regular-65" x="305.59993"/>
      <use xlink:href="#STIXGeneral-Regular-73" x="349.999924"/>
     </g>
    </g>
   </g>
  </g>
  <g id="text_18">
   <!-- Liquid Temperature -->
   <g transform="translate(167.844375 13.955625) scale(0.12 -0.12)">
    <defs>
     <path id="STIXGeneral-Regular-4c" d="M 3827 1114 
L 3520 0 
L 77 0 
L 77 122 
Q 429 141 531 256 
Q 634 371 634 736 
L 634 3494 
Q 634 3872 541 3981 
Q 448 4090 77 4115 
L 77 4237 
L 1888 4237 
L 1888 4115 
Q 1498 4090 1392 3984 
Q 1286 3878 1286 3507 
L 1286 538 
Q 1286 358 1398 304 
Q 1510 250 1862 250 
L 2310 250 
Q 3085 250 3392 640 
Q 3520 813 3661 1114 
L 3827 1114 
z
" transform="scale(0.015625)"/>
     <path id="STIXGeneral-Regular-71" d="M 3123 -1389 
L 1613 -1389 
L 1613 -1280 
Q 1952 -1254 2067 -1158 
Q 2182 -1062 2182 -794 
L 2182 410 
Q 1747 -64 1178 -64 
Q 730 -64 442 320 
Q 154 704 154 1312 
Q 154 2003 560 2473 
Q 966 2944 1562 2944 
Q 1920 2944 2304 2720 
L 2650 2925 
L 2720 2925 
L 2720 -902 
Q 2720 -1107 2797 -1180 
Q 2874 -1254 3123 -1280 
L 3123 -1389 
z
M 2182 813 
L 2182 2131 
Q 2182 2758 1587 2758 
Q 1178 2758 941 2432 
Q 704 2106 704 1542 
Q 704 1210 803 925 
Q 902 640 1062 499 
Q 1254 326 1542 326 
Q 1882 326 2106 531 
Q 2182 602 2182 813 
z
" transform="scale(0.015625)"/>
     <path id="STIXGeneral-Regular-64" d="M 3142 269 
L 2202 -64 
L 2176 -45 
L 2176 365 
Q 1869 -64 1357 -64 
Q 826 -64 499 317 
Q 173 698 173 1312 
Q 173 1990 563 2467 
Q 954 2944 1504 2944 
Q 1850 2944 2176 2669 
L 2176 3667 
Q 2176 3866 2118 3930 
Q 2061 3994 1882 3994 
Q 1792 3994 1741 3987 
L 1741 4090 
Q 2323 4243 2682 4371 
L 2714 4358 
L 2714 730 
Q 2714 506 2768 435 
Q 2822 365 2995 365 
Q 3034 365 3142 371 
L 3142 269 
z
M 2176 653 
L 2176 2125 
Q 2176 2381 1981 2573 
Q 1786 2765 1523 2765 
Q 1158 2765 940 2438 
Q 723 2112 723 1568 
Q 723 979 963 624 
Q 1203 269 1606 269 
Q 1907 269 2080 474 
Q 2176 582 2176 653 
z
" transform="scale(0.015625)"/>
    </defs>
    <use xlink:href="#STIXGeneral-Regular-4c"/>
    <use xlink:href="#STIXGeneral-Regular-69" x="61.099991"/>
    <use xlink:href="#STIXGeneral-Regular-71" x="88.899979"/>
    <use xlink:href="#STIXGeneral-Regular-75" x="138.899963"/>
    <use xlink:href="#STIXGeneral-Regular-69" x="188.899948"/>
    <use xlink:href="#STIXGeneral-Regular-64" x="216.699936"/>
    <use xlink:href="#STIXGeneral-Regular-20" x="266.699921"/>
    <use xlink:href="#STIXGeneral-Regular-54" x="291.699905"/>
    <use xlink:href="#STIXGeneral-Regular-65" x="352.799896"/>
    <use xlink:href="#STIXGeneral-Regular-6d" x="397.19989"/>
    <use xlink:href="#STIXGeneral-Regular-70" x="474.999878"/>
    <use xlink:href="#STIXGeneral-Regular-65" x="524.999863"/>
    <use xlink:href="#STIXGeneral-Regular-72" x="569.399857"/>
    <use xlink:href="#STIXGeneral-Regular-61" x="602.699844"/>
    <use xlink:href="#STIXGeneral-Regular-74" x="647.099838"/>
    <use xlink:href="#STIXGeneral-Regular-75" x="674.899826"/>
    <use xlink:href="#STIXGeneral-Regular-72" x="724.899811"/>
    <use xlink:href="#STIXGeneral-Regular-65" x="758.199799"/>
   </g>
  </g>
 </g>
 <defs>
  <clipPath id="pc78e69c398">
   <rect x="54" y="34.56" width="334.8" height="221.76"/>
  </clipPath>
 </defs>
</svg>
