<?xml version="1.0" encoding="utf-8" standalone="no"?>
<!DOCTYPE svg PUBLIC "-//W3C//DTD SVG 1.1//EN"
  "http://www.w3.org/Graphics/SVG/1.1/DTD/svg11.dtd">
<svg xmlns:xlink="http://www.w3.org/1999/xlink" width="432pt" height="288pt" viewBox="0 0 432 288" xmlns="http://www.w3.org/2000/svg" version="1.1">
 <metadata>
  <rdf:RDF xmlns:dc="http://purl.org/dc/elements/1.1/" xmlns:cc="http://creativecommons.org/ns#" xmlns:rdf="http://www.w3.org/1999/02/22-rdf-syntax-ns#">
   <cc:Work>
    <dc:type rdf:resource="http://purl.org/dc/dcmitype/StillImage"/>
    <dc:date>2022-11-21T19:33:52.741630</dc:date>
    <dc:format>image/svg+xml</dc:format>
    <dc:creator>
     <cc:Agent>
      <dc:title>Matplotlib v3.6.1, https://matplotlib.org/</dc:title>
     </cc:Agent>
    </dc:creator>
   </cc:Work>
  </rdf:RDF>
 </metadata>
 <defs>
  <style type="text/css">*{stroke-linejoin: round; stroke-linecap: butt}</style>
 </defs>
 <g id="figure_1">
  <g id="patch_1">
   <path d="M 0 288 
L 432 288 
L 432 0 
L 0 0 
z
" style="fill: #ffffff"/>
  </g>
  <g id="axes_1">
   <g id="patch_2">
    <path d="M 54 256.32 
L 388.8 256.32 
L 388.8 34.56 
L 54 34.56 
z
" style="fill: #ffffff"/>
   </g>
   <g id="matplotlib.axis_1">
    <g id="xtick_1">
     <g id="line2d_1">
      <path d="M 69.218182 256.32 
L 69.218182 34.56 
" clip-path="url(#p57fbf8162f)" style="fill: none; stroke: #b0b0b0; stroke-width: 0.8; stroke-linecap: square"/>
     </g>
     <g id="line2d_2">
      <defs>
       <path id="m076274d637" d="M 0 0 
L 0 3.5 
" style="stroke: #000000; stroke-width: 0.8"/>
      </defs>
      <g>
       <use xlink:href="#m076274d637" x="69.218182" y="256.32" style="stroke: #000000; stroke-width: 0.8"/>
      </g>
     </g>
     <g id="text_1">
      <!-- 0 -->
      <g transform="translate(66.718182 270.149688) scale(0.1 -0.1)">
       <defs>
        <path id="STIXGeneral-Regular-30" d="M 3046 2112 
Q 3046 1683 2963 1302 
Q 2880 922 2717 602 
Q 2554 282 2266 96 
Q 1978 -90 1600 -90 
Q 1210 -90 915 108 
Q 621 307 461 640 
Q 301 973 227 1350 
Q 154 1728 154 2150 
Q 154 2746 301 3222 
Q 448 3699 790 4012 
Q 1133 4326 1626 4326 
Q 2253 4326 2649 3712 
Q 3046 3098 3046 2112 
z
M 2432 2080 
Q 2432 3091 2217 3625 
Q 2003 4160 1587 4160 
Q 1190 4160 979 3622 
Q 768 3085 768 2106 
Q 768 1120 979 598 
Q 1190 77 1600 77 
Q 2003 77 2217 598 
Q 2432 1120 2432 2080 
z
" transform="scale(0.015625)"/>
       </defs>
       <use xlink:href="#STIXGeneral-Regular-30"/>
      </g>
     </g>
    </g>
    <g id="xtick_2">
     <g id="line2d_3">
      <path d="M 111.199373 256.32 
L 111.199373 34.56 
" clip-path="url(#p57fbf8162f)" style="fill: none; stroke: #b0b0b0; stroke-width: 0.8; stroke-linecap: square"/>
     </g>
     <g id="line2d_4">
      <g>
       <use xlink:href="#m076274d637" x="111.199373" y="256.32" style="stroke: #000000; stroke-width: 0.8"/>
      </g>
     </g>
     <g id="text_2">
      <!-- 1 -->
      <g transform="translate(108.699373 270.149688) scale(0.1 -0.1)">
       <defs>
        <path id="STIXGeneral-Regular-31" d="M 2522 0 
L 755 0 
L 755 96 
Q 1107 115 1235 227 
Q 1363 339 1363 608 
L 1363 3482 
Q 1363 3795 1171 3795 
Q 1082 3795 883 3718 
L 710 3654 
L 710 3744 
L 1856 4326 
L 1914 4307 
L 1914 486 
Q 1914 275 2042 185 
Q 2170 96 2522 96 
L 2522 0 
z
" transform="scale(0.015625)"/>
       </defs>
       <use xlink:href="#STIXGeneral-Regular-31"/>
      </g>
     </g>
    </g>
    <g id="xtick_3">
     <g id="line2d_5">
      <path d="M 153.180564 256.32 
L 153.180564 34.56 
" clip-path="url(#p57fbf8162f)" style="fill: none; stroke: #b0b0b0; stroke-width: 0.8; stroke-linecap: square"/>
     </g>
     <g id="line2d_6">
      <g>
       <use xlink:href="#m076274d637" x="153.180564" y="256.32" style="stroke: #000000; stroke-width: 0.8"/>
      </g>
     </g>
     <g id="text_3">
      <!-- 2 -->
      <g transform="translate(150.680564 270.149688) scale(0.1 -0.1)">
       <defs>
        <path id="STIXGeneral-Regular-32" d="M 3034 877 
L 2688 0 
L 186 0 
L 186 77 
L 1325 1286 
Q 1773 1754 1965 2144 
Q 2157 2534 2157 2950 
Q 2157 3379 1920 3616 
Q 1683 3853 1267 3853 
Q 922 3853 720 3673 
Q 518 3494 326 3021 
L 192 3053 
Q 301 3648 630 3987 
Q 960 4326 1523 4326 
Q 2054 4326 2380 4006 
Q 2707 3686 2707 3200 
Q 2707 2477 1888 1613 
L 832 486 
L 2330 486 
Q 2541 486 2665 569 
Q 2790 653 2944 915 
L 3034 877 
z
" transform="scale(0.015625)"/>
       </defs>
       <use xlink:href="#STIXGeneral-Regular-32"/>
      </g>
     </g>
    </g>
    <g id="xtick_4">
     <g id="line2d_7">
      <path d="M 195.161755 256.32 
L 195.161755 34.56 
" clip-path="url(#p57fbf8162f)" style="fill: none; stroke: #b0b0b0; stroke-width: 0.8; stroke-linecap: square"/>
     </g>
     <g id="line2d_8">
      <g>
       <use xlink:href="#m076274d637" x="195.161755" y="256.32" style="stroke: #000000; stroke-width: 0.8"/>
      </g>
     </g>
     <g id="text_4">
      <!-- 3 -->
      <g transform="translate(192.661755 270.149688) scale(0.1 -0.1)">
       <defs>
        <path id="STIXGeneral-Regular-33" d="M 390 3264 
L 288 3290 
Q 435 3770 748 4048 
Q 1062 4326 1542 4326 
Q 1990 4326 2265 4083 
Q 2541 3840 2541 3450 
Q 2541 2925 1946 2566 
Q 2298 2413 2477 2227 
Q 2758 1914 2758 1402 
Q 2758 890 2464 506 
Q 2246 211 1840 60 
Q 1434 -90 979 -90 
Q 262 -90 262 275 
Q 262 378 339 442 
Q 416 506 525 506 
Q 685 506 915 339 
Q 1197 141 1466 141 
Q 1818 141 2058 425 
Q 2298 710 2298 1120 
Q 2298 1856 1632 2048 
Q 1434 2112 979 2112 
L 979 2202 
Q 1338 2323 1517 2432 
Q 2035 2726 2035 3290 
Q 2035 3610 1852 3776 
Q 1670 3942 1344 3942 
Q 768 3942 390 3264 
z
" transform="scale(0.015625)"/>
       </defs>
       <use xlink:href="#STIXGeneral-Regular-33"/>
      </g>
     </g>
    </g>
    <g id="xtick_5">
     <g id="line2d_9">
      <path d="M 237.142947 256.32 
L 237.142947 34.56 
" clip-path="url(#p57fbf8162f)" style="fill: none; stroke: #b0b0b0; stroke-width: 0.8; stroke-linecap: square"/>
     </g>
     <g id="line2d_10">
      <g>
       <use xlink:href="#m076274d637" x="237.142947" y="256.32" style="stroke: #000000; stroke-width: 0.8"/>
      </g>
     </g>
     <g id="text_5">
      <!-- 4 -->
      <g transform="translate(234.642947 270.149688) scale(0.1 -0.1)">
       <defs>
        <path id="STIXGeneral-Regular-34" d="M 3027 1069 
L 2368 1069 
L 2368 0 
L 1869 0 
L 1869 1069 
L 77 1069 
L 77 1478 
L 2086 4326 
L 2368 4326 
L 2368 1478 
L 3027 1478 
L 3027 1069 
z
M 1869 1478 
L 1869 3674 
L 333 1478 
L 1869 1478 
z
" transform="scale(0.015625)"/>
       </defs>
       <use xlink:href="#STIXGeneral-Regular-34"/>
      </g>
     </g>
    </g>
    <g id="xtick_6">
     <g id="line2d_11">
      <path d="M 279.124138 256.32 
L 279.124138 34.56 
" clip-path="url(#p57fbf8162f)" style="fill: none; stroke: #b0b0b0; stroke-width: 0.8; stroke-linecap: square"/>
     </g>
     <g id="line2d_12">
      <g>
       <use xlink:href="#m076274d637" x="279.124138" y="256.32" style="stroke: #000000; stroke-width: 0.8"/>
      </g>
     </g>
     <g id="text_6">
      <!-- 5 -->
      <g transform="translate(276.624138 270.149688) scale(0.1 -0.1)">
       <defs>
        <path id="STIXGeneral-Regular-35" d="M 2803 4358 
L 2573 3814 
Q 2534 3731 2400 3731 
L 1158 3731 
L 902 3187 
Q 1606 3053 1920 2896 
Q 2234 2739 2502 2368 
Q 2726 2061 2726 1555 
Q 2726 1094 2576 780 
Q 2426 467 2099 224 
Q 1664 -90 1011 -90 
Q 646 -90 422 19 
Q 198 128 198 307 
Q 198 550 486 550 
Q 717 550 960 352 
Q 1210 147 1414 147 
Q 1747 147 2012 480 
Q 2278 813 2278 1229 
Q 2278 1843 1850 2189 
Q 1293 2637 486 2637 
Q 410 2637 410 2688 
L 416 2720 
L 1114 4237 
L 2438 4237 
Q 2547 4237 2608 4269 
Q 2669 4301 2746 4403 
L 2803 4358 
z
" transform="scale(0.015625)"/>
       </defs>
       <use xlink:href="#STIXGeneral-Regular-35"/>
      </g>
     </g>
    </g>
    <g id="xtick_7">
     <g id="line2d_13">
      <path d="M 321.105329 256.32 
L 321.105329 34.56 
" clip-path="url(#p57fbf8162f)" style="fill: none; stroke: #b0b0b0; stroke-width: 0.8; stroke-linecap: square"/>
     </g>
     <g id="line2d_14">
      <g>
       <use xlink:href="#m076274d637" x="321.105329" y="256.32" style="stroke: #000000; stroke-width: 0.8"/>
      </g>
     </g>
     <g id="text_7">
      <!-- 6 -->
      <g transform="translate(318.605329 270.149688) scale(0.1 -0.1)">
       <defs>
        <path id="STIXGeneral-Regular-36" d="M 2854 4378 
L 2867 4275 
Q 2112 4154 1606 3664 
Q 1101 3174 973 2451 
Q 1344 2739 1786 2739 
Q 2349 2739 2672 2380 
Q 2995 2022 2995 1402 
Q 2995 774 2669 378 
Q 2291 -90 1651 -90 
Q 870 -90 518 557 
Q 218 1107 218 1786 
Q 218 2835 915 3552 
Q 1312 3962 1731 4131 
Q 2150 4301 2854 4378 
z
M 2419 1203 
Q 2419 2445 1555 2445 
Q 1235 2445 1024 2275 
Q 813 2106 813 1702 
Q 813 954 1046 522 
Q 1280 90 1722 90 
Q 2061 90 2240 394 
Q 2419 698 2419 1203 
z
" transform="scale(0.015625)"/>
       </defs>
       <use xlink:href="#STIXGeneral-Regular-36"/>
      </g>
     </g>
    </g>
    <g id="xtick_8">
     <g id="line2d_15">
      <path d="M 363.08652 256.32 
L 363.08652 34.56 
" clip-path="url(#p57fbf8162f)" style="fill: none; stroke: #b0b0b0; stroke-width: 0.8; stroke-linecap: square"/>
     </g>
     <g id="line2d_16">
      <g>
       <use xlink:href="#m076274d637" x="363.08652" y="256.32" style="stroke: #000000; stroke-width: 0.8"/>
      </g>
     </g>
     <g id="text_8">
      <!-- 7 -->
      <g transform="translate(360.58652 270.149688) scale(0.1 -0.1)">
       <defs>
        <path id="STIXGeneral-Regular-37" d="M 2874 4134 
L 1517 -51 
L 1101 -51 
L 2368 3763 
L 992 3763 
Q 717 3763 582 3667 
Q 448 3571 243 3238 
L 128 3296 
L 512 4237 
L 2874 4237 
L 2874 4134 
z
" transform="scale(0.015625)"/>
       </defs>
       <use xlink:href="#STIXGeneral-Regular-37"/>
      </g>
     </g>
    </g>
    <g id="text_9">
     <!-- Time (s) -->
     <g transform="translate(204.320312 283.149688) scale(0.1 -0.1)">
      <defs>
       <path id="STIXGeneral-Regular-54" d="M 3795 3149 
L 3642 3149 
Q 3539 3674 3353 3821 
Q 3168 3968 2656 3968 
L 2278 3968 
L 2278 710 
Q 2278 346 2387 243 
Q 2496 141 2893 122 
L 2893 0 
L 1024 0 
L 1024 122 
Q 1427 147 1526 256 
Q 1626 365 1626 787 
L 1626 3968 
L 1242 3968 
Q 723 3968 540 3817 
Q 358 3667 262 3149 
L 109 3149 
L 154 4237 
L 3750 4237 
L 3795 3149 
z
" transform="scale(0.015625)"/>
       <path id="STIXGeneral-Regular-69" d="M 1152 4045 
Q 1152 3904 1056 3811 
Q 960 3718 819 3718 
Q 685 3718 592 3811 
Q 499 3904 499 4045 
Q 499 4179 595 4275 
Q 691 4371 826 4371 
Q 966 4371 1059 4275 
Q 1152 4179 1152 4045 
z
M 1619 0 
L 102 0 
L 102 96 
Q 435 115 521 211 
Q 608 307 608 666 
L 608 2118 
Q 608 2342 563 2432 
Q 518 2522 397 2522 
Q 243 2522 128 2490 
L 128 2592 
L 1120 2944 
L 1146 2918 
L 1146 672 
Q 1146 314 1226 218 
Q 1306 122 1619 96 
L 1619 0 
z
" transform="scale(0.015625)"/>
       <path id="STIXGeneral-Regular-6d" d="M 4960 0 
L 3565 0 
L 3565 96 
Q 3834 122 3907 208 
Q 3981 294 3981 576 
L 3981 1894 
Q 3981 2278 3869 2444 
Q 3757 2611 3488 2611 
Q 3264 2611 3107 2521 
Q 2950 2432 2803 2221 
L 2803 608 
Q 2803 301 2896 201 
Q 2989 102 3264 96 
L 3264 0 
L 1830 0 
L 1830 96 
Q 2112 115 2189 188 
Q 2266 262 2266 550 
L 2266 1901 
Q 2266 2611 1850 2611 
Q 1670 2611 1468 2531 
Q 1267 2451 1171 2336 
Q 1088 2240 1088 2227 
L 1088 448 
Q 1088 243 1177 176 
Q 1267 109 1523 96 
L 1523 0 
L 102 0 
L 102 96 
Q 371 102 460 195 
Q 550 288 550 563 
L 550 2150 
Q 550 2387 499 2480 
Q 448 2573 326 2573 
Q 230 2573 122 2547 
L 122 2656 
Q 557 2778 1011 2944 
L 1062 2925 
L 1062 2451 
L 1075 2451 
Q 1363 2752 1584 2848 
Q 1805 2944 2054 2944 
Q 2560 2944 2733 2406 
Q 3232 2944 3776 2944 
Q 4518 2944 4518 1792 
L 4518 493 
Q 4518 282 4582 202 
Q 4646 122 4794 109 
L 4960 96 
L 4960 0 
z
" transform="scale(0.015625)"/>
       <path id="STIXGeneral-Regular-65" d="M 2611 1050 
L 2714 1005 
Q 2330 -64 1376 -64 
Q 813 -64 486 329 
Q 160 723 160 1389 
Q 160 2074 525 2509 
Q 890 2944 1485 2944 
Q 2061 2944 2374 2502 
Q 2560 2246 2592 1773 
L 621 1773 
Q 646 1370 700 1158 
Q 755 947 915 730 
Q 1184 378 1626 378 
Q 1939 378 2153 531 
Q 2368 685 2611 1050 
z
M 634 1978 
L 1939 1978 
Q 1882 2381 1750 2547 
Q 1619 2714 1312 2714 
Q 1043 2714 864 2525 
Q 685 2336 634 1978 
z
" transform="scale(0.015625)"/>
       <path id="STIXGeneral-Regular-20" transform="scale(0.015625)"/>
       <path id="STIXGeneral-Regular-28" d="M 1946 -1030 
L 1869 -1133 
Q 1126 -710 716 32 
Q 307 774 307 1613 
Q 307 3386 1888 4326 
L 1946 4224 
Q 1293 3667 1075 3126 
Q 858 2586 858 1632 
Q 858 685 1082 96 
Q 1306 -493 1946 -1030 
z
" transform="scale(0.015625)"/>
       <path id="STIXGeneral-Regular-73" d="M 998 1926 
L 1664 1523 
Q 1984 1331 2105 1164 
Q 2227 998 2227 736 
Q 2227 416 1961 176 
Q 1696 -64 1331 -64 
Q 1030 -64 864 -6 
Q 691 51 570 51 
Q 461 51 416 -26 
L 333 -26 
L 333 979 
L 435 979 
Q 538 512 730 294 
Q 922 77 1248 77 
Q 1485 77 1632 211 
Q 1779 346 1779 550 
Q 1779 845 1440 1030 
L 1094 1222 
Q 326 1651 326 2150 
Q 326 2522 566 2730 
Q 806 2938 1210 2938 
Q 1491 2938 1638 2867 
Q 1754 2816 1818 2816 
Q 1862 2816 1920 2880 
L 1990 2880 
L 2022 2010 
L 1926 2010 
Q 1818 2445 1654 2621 
Q 1491 2797 1203 2797 
Q 986 2797 854 2688 
Q 723 2579 723 2362 
Q 723 2253 796 2128 
Q 870 2003 998 1926 
z
" transform="scale(0.015625)"/>
       <path id="STIXGeneral-Regular-29" d="M 186 4224 
L 262 4326 
Q 992 3891 1408 3148 
Q 1824 2406 1824 1581 
Q 1824 -166 243 -1133 
L 186 -1030 
Q 845 -486 1059 54 
Q 1274 595 1274 1562 
Q 1274 2534 1059 3120 
Q 845 3706 186 4224 
z
" transform="scale(0.015625)"/>
      </defs>
      <use xlink:href="#STIXGeneral-Regular-54"/>
      <use xlink:href="#STIXGeneral-Regular-69" x="61.099991"/>
      <use xlink:href="#STIXGeneral-Regular-6d" x="88.899979"/>
      <use xlink:href="#STIXGeneral-Regular-65" x="166.699966"/>
      <use xlink:href="#STIXGeneral-Regular-20" x="211.09996"/>
      <use xlink:href="#STIXGeneral-Regular-28" x="236.099945"/>
      <use xlink:href="#STIXGeneral-Regular-73" x="269.399933"/>
      <use xlink:href="#STIXGeneral-Regular-29" x="308.299927"/>
     </g>
    </g>
   </g>
   <g id="matplotlib.axis_2">
    <g id="ytick_1">
     <g id="line2d_17">
      <path d="M 54 238.282469 
L 388.8 238.282469 
" clip-path="url(#p57fbf8162f)" style="fill: none; stroke: #b0b0b0; stroke-width: 0.8; stroke-linecap: square"/>
     </g>
     <g id="line2d_18">
      <defs>
       <path id="mec97ff3c1a" d="M 0 0 
L -3.5 0 
" style="stroke: #000000; stroke-width: 0.8"/>
      </defs>
      <g>
       <use xlink:href="#mec97ff3c1a" x="54" y="238.282469" style="stroke: #000000; stroke-width: 0.8"/>
      </g>
     </g>
     <g id="text_10">
      <!-- 0 -->
      <g transform="translate(42 241.697313) scale(0.1 -0.1)">
       <use xlink:href="#STIXGeneral-Regular-30"/>
      </g>
     </g>
    </g>
    <g id="ytick_2">
     <g id="line2d_19">
      <path d="M 54 189.161906 
L 388.8 189.161906 
" clip-path="url(#p57fbf8162f)" style="fill: none; stroke: #b0b0b0; stroke-width: 0.8; stroke-linecap: square"/>
     </g>
     <g id="line2d_20">
      <g>
       <use xlink:href="#mec97ff3c1a" x="54" y="189.161906" style="stroke: #000000; stroke-width: 0.8"/>
      </g>
     </g>
     <g id="text_11">
      <!-- 200 -->
      <g transform="translate(32 192.57675) scale(0.1 -0.1)">
       <use xlink:href="#STIXGeneral-Regular-32"/>
       <use xlink:href="#STIXGeneral-Regular-30" x="49.999985"/>
       <use xlink:href="#STIXGeneral-Regular-30" x="99.999969"/>
      </g>
     </g>
    </g>
    <g id="ytick_3">
     <g id="line2d_21">
      <path d="M 54 140.041343 
L 388.8 140.041343 
" clip-path="url(#p57fbf8162f)" style="fill: none; stroke: #b0b0b0; stroke-width: 0.8; stroke-linecap: square"/>
     </g>
     <g id="line2d_22">
      <g>
       <use xlink:href="#mec97ff3c1a" x="54" y="140.041343" style="stroke: #000000; stroke-width: 0.8"/>
      </g>
     </g>
     <g id="text_12">
      <!-- 400 -->
      <g transform="translate(32 143.456187) scale(0.1 -0.1)">
       <use xlink:href="#STIXGeneral-Regular-34"/>
       <use xlink:href="#STIXGeneral-Regular-30" x="49.999985"/>
       <use xlink:href="#STIXGeneral-Regular-30" x="99.999969"/>
      </g>
     </g>
    </g>
    <g id="ytick_4">
     <g id="line2d_23">
      <path d="M 54 90.92078 
L 388.8 90.92078 
" clip-path="url(#p57fbf8162f)" style="fill: none; stroke: #b0b0b0; stroke-width: 0.8; stroke-linecap: square"/>
     </g>
     <g id="line2d_24">
      <g>
       <use xlink:href="#mec97ff3c1a" x="54" y="90.92078" style="stroke: #000000; stroke-width: 0.8"/>
      </g>
     </g>
     <g id="text_13">
      <!-- 600 -->
      <g transform="translate(32 94.335624) scale(0.1 -0.1)">
       <use xlink:href="#STIXGeneral-Regular-36"/>
       <use xlink:href="#STIXGeneral-Regular-30" x="49.999985"/>
       <use xlink:href="#STIXGeneral-Regular-30" x="99.999969"/>
      </g>
     </g>
    </g>
    <g id="ytick_5">
     <g id="line2d_25">
      <path d="M 54 41.800217 
L 388.8 41.800217 
" clip-path="url(#p57fbf8162f)" style="fill: none; stroke: #b0b0b0; stroke-width: 0.8; stroke-linecap: square"/>
     </g>
     <g id="line2d_26">
      <g>
       <use xlink:href="#mec97ff3c1a" x="54" y="41.800217" style="stroke: #000000; stroke-width: 0.8"/>
      </g>
     </g>
     <g id="text_14">
      <!-- 800 -->
      <g transform="translate(32 45.215061) scale(0.1 -0.1)">
       <defs>
        <path id="STIXGeneral-Regular-38" d="M 2848 992 
Q 2848 499 2505 204 
Q 2163 -90 1587 -90 
Q 1050 -90 704 204 
Q 358 499 358 954 
Q 358 1293 524 1533 
Q 691 1773 1190 2125 
Q 710 2522 553 2765 
Q 397 3008 397 3328 
Q 397 3782 745 4054 
Q 1094 4326 1638 4326 
Q 2106 4326 2410 4060 
Q 2714 3795 2714 3411 
Q 2714 3059 2531 2848 
Q 2349 2637 1856 2374 
Q 2432 1990 2640 1689 
Q 2848 1389 2848 992 
z
M 2272 3411 
Q 2272 3744 2086 3945 
Q 1901 4147 1574 4147 
Q 1248 4147 1059 3977 
Q 870 3808 870 3513 
Q 870 3219 1059 2979 
Q 1248 2739 1670 2490 
Q 1997 2682 2134 2896 
Q 2272 3110 2272 3411 
z
M 1734 1741 
L 1357 1997 
Q 1075 1766 960 1545 
Q 845 1325 845 1011 
Q 845 576 1065 333 
Q 1286 90 1658 90 
Q 1971 90 2166 285 
Q 2362 480 2362 794 
Q 2362 1082 2214 1299 
Q 2067 1517 1734 1741 
z
" transform="scale(0.015625)"/>
       </defs>
       <use xlink:href="#STIXGeneral-Regular-38"/>
       <use xlink:href="#STIXGeneral-Regular-30" x="49.999985"/>
       <use xlink:href="#STIXGeneral-Regular-30" x="99.999969"/>
      </g>
     </g>
    </g>
    <g id="text_15">
     <!-- Altitude (m) -->
     <g transform="translate(25.829687 170.299375) rotate(-90) scale(0.1 -0.1)">
      <defs>
       <path id="STIXGeneral-Regular-41" d="M 4525 0 
L 2893 0 
L 2893 122 
Q 3149 122 3245 179 
Q 3334 224 3334 333 
Q 3334 499 3213 781 
L 2950 1382 
L 1274 1382 
L 979 653 
Q 922 506 922 384 
Q 922 237 1027 179 
Q 1133 122 1370 122 
L 1370 0 
L 96 0 
L 96 122 
Q 365 147 486 316 
Q 608 486 902 1190 
L 2221 4314 
L 2349 4314 
L 3923 710 
Q 4064 378 4176 262 
Q 4288 147 4525 122 
L 4525 0 
z
M 2861 1645 
L 2118 3405 
L 1382 1645 
L 2861 1645 
z
" transform="scale(0.015625)"/>
       <path id="STIXGeneral-Regular-6c" d="M 1645 0 
L 134 0 
L 134 96 
Q 435 122 531 221 
Q 627 320 627 589 
L 627 3590 
Q 627 3821 569 3910 
Q 512 4000 358 4000 
Q 224 4000 122 3987 
L 122 4090 
Q 730 4237 1133 4371 
L 1165 4346 
L 1165 557 
Q 1165 288 1254 201 
Q 1344 115 1645 96 
L 1645 0 
z
" transform="scale(0.015625)"/>
       <path id="STIXGeneral-Regular-74" d="M 1702 493 
L 1786 422 
Q 1478 -64 1011 -64 
Q 448 -64 448 749 
L 448 2675 
L 109 2675 
Q 83 2694 83 2720 
Q 83 2771 192 2842 
Q 435 2982 813 3526 
Q 826 3546 874 3606 
Q 922 3667 941 3706 
Q 986 3706 986 3622 
L 986 2880 
L 1632 2880 
L 1632 2675 
L 986 2675 
L 986 845 
Q 986 538 1062 403 
Q 1139 269 1318 269 
Q 1510 269 1702 493 
z
" transform="scale(0.015625)"/>
       <path id="STIXGeneral-Regular-75" d="M 3072 320 
L 3072 230 
Q 2573 96 2195 -58 
L 2163 -38 
L 2163 486 
L 2150 486 
Q 1747 -64 1235 -64 
Q 870 -64 662 160 
Q 454 384 454 755 
L 454 2362 
Q 454 2598 371 2688 
Q 288 2778 58 2790 
L 58 2880 
L 992 2880 
L 992 813 
Q 992 595 1123 451 
Q 1254 307 1446 307 
Q 1760 307 1984 506 
Q 2067 582 2099 649 
Q 2131 717 2131 877 
L 2131 2355 
Q 2131 2605 2041 2678 
Q 1952 2752 1658 2771 
L 1658 2880 
L 2669 2880 
L 2669 685 
Q 2669 461 2742 390 
Q 2816 320 3034 320 
L 3072 320 
z
" transform="scale(0.015625)"/>
       <path id="STIXGeneral-Regular-64" d="M 3142 269 
L 2202 -64 
L 2176 -45 
L 2176 365 
Q 1869 -64 1357 -64 
Q 826 -64 499 317 
Q 173 698 173 1312 
Q 173 1990 563 2467 
Q 954 2944 1504 2944 
Q 1850 2944 2176 2669 
L 2176 3667 
Q 2176 3866 2118 3930 
Q 2061 3994 1882 3994 
Q 1792 3994 1741 3987 
L 1741 4090 
Q 2323 4243 2682 4371 
L 2714 4358 
L 2714 730 
Q 2714 506 2768 435 
Q 2822 365 2995 365 
Q 3034 365 3142 371 
L 3142 269 
z
M 2176 653 
L 2176 2125 
Q 2176 2381 1981 2573 
Q 1786 2765 1523 2765 
Q 1158 2765 940 2438 
Q 723 2112 723 1568 
Q 723 979 963 624 
Q 1203 269 1606 269 
Q 1907 269 2080 474 
Q 2176 582 2176 653 
z
" transform="scale(0.015625)"/>
      </defs>
      <use xlink:href="#STIXGeneral-Regular-41"/>
      <use xlink:href="#STIXGeneral-Regular-6c" x="72.199982"/>
      <use xlink:href="#STIXGeneral-Regular-74" x="99.999969"/>
      <use xlink:href="#STIXGeneral-Regular-69" x="127.799957"/>
      <use xlink:href="#STIXGeneral-Regular-74" x="155.599945"/>
      <use xlink:href="#STIXGeneral-Regular-75" x="183.399933"/>
      <use xlink:href="#STIXGeneral-Regular-64" x="233.399918"/>
      <use xlink:href="#STIXGeneral-Regular-65" x="283.399902"/>
      <use xlink:href="#STIXGeneral-Regular-20" x="327.799896"/>
      <use xlink:href="#STIXGeneral-Regular-28" x="352.799881"/>
      <use xlink:href="#STIXGeneral-Regular-6d" x="386.099869"/>
      <use xlink:href="#STIXGeneral-Regular-29" x="463.899857"/>
     </g>
    </g>
   </g>
   <g id="line2d_27">
    <path d="M 69.218182 238.282469 
L 79.71348 238.052216 
L 90.208777 237.361458 
L 100.704075 236.210195 
L 111.199373 234.598427 
L 121.694671 232.526153 
L 132.189969 229.993374 
L 142.685266 227.00009 
L 153.180564 223.5463 
L 163.675862 219.632005 
L 174.17116 215.257205 
L 184.666458 210.4219 
L 195.161755 205.126089 
L 205.657053 199.369773 
L 216.152351 193.152952 
L 226.647649 186.475625 
L 237.142947 179.337793 
L 247.638245 171.739456 
L 258.133542 163.680614 
L 268.62884 155.161266 
L 279.124138 146.181413 
L 289.619436 136.741055 
L 300.114734 126.840192 
L 310.610031 116.478823 
L 321.105329 105.656949 
L 331.600627 94.37457 
L 342.095925 82.631685 
L 352.591223 70.428295 
L 363.08652 57.7644 
L 373.581818 44.64 
" clip-path="url(#p57fbf8162f)" style="fill: none; stroke: #008000; stroke-width: 1.5; stroke-linecap: square"/>
    <defs>
     <path id="m8afb0084be" d="M -0 4.242641 
L 2.545584 0 
L 0 -4.242641 
L -2.545584 -0 
z
" style="stroke: #008000; stroke-linejoin: miter"/>
    </defs>
    <g clip-path="url(#p57fbf8162f)">
     <use xlink:href="#m8afb0084be" x="69.218182" y="238.282469" style="fill: #008000; stroke: #008000; stroke-linejoin: miter"/>
     <use xlink:href="#m8afb0084be" x="79.71348" y="238.052216" style="fill: #008000; stroke: #008000; stroke-linejoin: miter"/>
     <use xlink:href="#m8afb0084be" x="90.208777" y="237.361458" style="fill: #008000; stroke: #008000; stroke-linejoin: miter"/>
     <use xlink:href="#m8afb0084be" x="100.704075" y="236.210195" style="fill: #008000; stroke: #008000; stroke-linejoin: miter"/>
     <use xlink:href="#m8afb0084be" x="111.199373" y="234.598427" style="fill: #008000; stroke: #008000; stroke-linejoin: miter"/>
     <use xlink:href="#m8afb0084be" x="121.694671" y="232.526153" style="fill: #008000; stroke: #008000; stroke-linejoin: miter"/>
     <use xlink:href="#m8afb0084be" x="132.189969" y="229.993374" style="fill: #008000; stroke: #008000; stroke-linejoin: miter"/>
     <use xlink:href="#m8afb0084be" x="142.685266" y="227.00009" style="fill: #008000; stroke: #008000; stroke-linejoin: miter"/>
     <use xlink:href="#m8afb0084be" x="153.180564" y="223.5463" style="fill: #008000; stroke: #008000; stroke-linejoin: miter"/>
     <use xlink:href="#m8afb0084be" x="163.675862" y="219.632005" style="fill: #008000; stroke: #008000; stroke-linejoin: miter"/>
     <use xlink:href="#m8afb0084be" x="174.17116" y="215.257205" style="fill: #008000; stroke: #008000; stroke-linejoin: miter"/>
     <use xlink:href="#m8afb0084be" x="184.666458" y="210.4219" style="fill: #008000; stroke: #008000; stroke-linejoin: miter"/>
     <use xlink:href="#m8afb0084be" x="195.161755" y="205.126089" style="fill: #008000; stroke: #008000; stroke-linejoin: miter"/>
     <use xlink:href="#m8afb0084be" x="205.657053" y="199.369773" style="fill: #008000; stroke: #008000; stroke-linejoin: miter"/>
     <use xlink:href="#m8afb0084be" x="216.152351" y="193.152952" style="fill: #008000; stroke: #008000; stroke-linejoin: miter"/>
     <use xlink:href="#m8afb0084be" x="226.647649" y="186.475625" style="fill: #008000; stroke: #008000; stroke-linejoin: miter"/>
     <use xlink:href="#m8afb0084be" x="237.142947" y="179.337793" style="fill: #008000; stroke: #008000; stroke-linejoin: miter"/>
     <use xlink:href="#m8afb0084be" x="247.638245" y="171.739456" style="fill: #008000; stroke: #008000; stroke-linejoin: miter"/>
     <use xlink:href="#m8afb0084be" x="258.133542" y="163.680614" style="fill: #008000; stroke: #008000; stroke-linejoin: miter"/>
     <use xlink:href="#m8afb0084be" x="268.62884" y="155.161266" style="fill: #008000; stroke: #008000; stroke-linejoin: miter"/>
     <use xlink:href="#m8afb0084be" x="279.124138" y="146.181413" style="fill: #008000; stroke: #008000; stroke-linejoin: miter"/>
     <use xlink:href="#m8afb0084be" x="289.619436" y="136.741055" style="fill: #008000; stroke: #008000; stroke-linejoin: miter"/>
     <use xlink:href="#m8afb0084be" x="300.114734" y="126.840192" style="fill: #008000; stroke: #008000; stroke-linejoin: miter"/>
     <use xlink:href="#m8afb0084be" x="310.610031" y="116.478823" style="fill: #008000; stroke: #008000; stroke-linejoin: miter"/>
     <use xlink:href="#m8afb0084be" x="321.105329" y="105.656949" style="fill: #008000; stroke: #008000; stroke-linejoin: miter"/>
     <use xlink:href="#m8afb0084be" x="331.600627" y="94.37457" style="fill: #008000; stroke: #008000; stroke-linejoin: miter"/>
     <use xlink:href="#m8afb0084be" x="342.095925" y="82.631685" style="fill: #008000; stroke: #008000; stroke-linejoin: miter"/>
     <use xlink:href="#m8afb0084be" x="352.591223" y="70.428295" style="fill: #008000; stroke: #008000; stroke-linejoin: miter"/>
     <use xlink:href="#m8afb0084be" x="363.08652" y="57.7644" style="fill: #008000; stroke: #008000; stroke-linejoin: miter"/>
     <use xlink:href="#m8afb0084be" x="373.581818" y="44.64" style="fill: #008000; stroke: #008000; stroke-linejoin: miter"/>
    </g>
   </g>
   <g id="line2d_28">
    <path d="M 69.218182 246.24 
L 79.71348 241.00866 
L 90.208777 233.861618 
L 100.704075 232.658164 
L 111.199373 233.493214 
L 121.694671 231.282789 
L 132.189969 226.861938 
L 142.685266 221.360435 
L 153.180564 226.444413 
L 163.675862 224.504151 
L 174.17116 216.055414 
L 184.666458 212.518734 
L 195.161755 203.677032 
L 205.657053 201.933252 
L 216.152351 192.207381 
L 226.647649 186.90236 
L 237.142947 178.20802 
L 247.638245 170.397851 
L 258.133542 158.829958 
L 268.62884 150.528583 
L 279.124138 150.504023 
L 289.619436 140.458868 
L 300.114734 128.571692 
L 310.610031 124.0526 
L 321.105329 108.260339 
L 331.600627 98.190624 
L 342.095925 81.882597 
L 352.591223 68.006038 
L 363.08652 64.567598 
L 373.581818 54.448762 
" clip-path="url(#p57fbf8162f)" style="fill: none; stroke: #0000ff; stroke-width: 1.5; stroke-linecap: square"/>
    <defs>
     <path id="md70aed0f15" d="M -3 3 
L 3 3 
L 3 -3 
L -3 -3 
z
" style="stroke: #0000ff; stroke-linejoin: miter"/>
    </defs>
    <g clip-path="url(#p57fbf8162f)">
     <use xlink:href="#md70aed0f15" x="69.218182" y="246.24" style="fill: #0000ff; stroke: #0000ff; stroke-linejoin: miter"/>
     <use xlink:href="#md70aed0f15" x="79.71348" y="241.00866" style="fill: #0000ff; stroke: #0000ff; stroke-linejoin: miter"/>
     <use xlink:href="#md70aed0f15" x="90.208777" y="233.861618" style="fill: #0000ff; stroke: #0000ff; stroke-linejoin: miter"/>
     <use xlink:href="#md70aed0f15" x="100.704075" y="232.658164" style="fill: #0000ff; stroke: #0000ff; stroke-linejoin: miter"/>
     <use xlink:href="#md70aed0f15" x="111.199373" y="233.493214" style="fill: #0000ff; stroke: #0000ff; stroke-linejoin: miter"/>
     <use xlink:href="#md70aed0f15" x="121.694671" y="231.282789" style="fill: #0000ff; stroke: #0000ff; stroke-linejoin: miter"/>
     <use xlink:href="#md70aed0f15" x="132.189969" y="226.861938" style="fill: #0000ff; stroke: #0000ff; stroke-linejoin: miter"/>
     <use xlink:href="#md70aed0f15" x="142.685266" y="221.360435" style="fill: #0000ff; stroke: #0000ff; stroke-linejoin: miter"/>
     <use xlink:href="#md70aed0f15" x="153.180564" y="226.444413" style="fill: #0000ff; stroke: #0000ff; stroke-linejoin: miter"/>
     <use xlink:href="#md70aed0f15" x="163.675862" y="224.504151" style="fill: #0000ff; stroke: #0000ff; stroke-linejoin: miter"/>
     <use xlink:href="#md70aed0f15" x="174.17116" y="216.055414" style="fill: #0000ff; stroke: #0000ff; stroke-linejoin: miter"/>
     <use xlink:href="#md70aed0f15" x="184.666458" y="212.518734" style="fill: #0000ff; stroke: #0000ff; stroke-linejoin: miter"/>
     <use xlink:href="#md70aed0f15" x="195.161755" y="203.677032" style="fill: #0000ff; stroke: #0000ff; stroke-linejoin: miter"/>
     <use xlink:href="#md70aed0f15" x="205.657053" y="201.933252" style="fill: #0000ff; stroke: #0000ff; stroke-linejoin: miter"/>
     <use xlink:href="#md70aed0f15" x="216.152351" y="192.207381" style="fill: #0000ff; stroke: #0000ff; stroke-linejoin: miter"/>
     <use xlink:href="#md70aed0f15" x="226.647649" y="186.90236" style="fill: #0000ff; stroke: #0000ff; stroke-linejoin: miter"/>
     <use xlink:href="#md70aed0f15" x="237.142947" y="178.20802" style="fill: #0000ff; stroke: #0000ff; stroke-linejoin: miter"/>
     <use xlink:href="#md70aed0f15" x="247.638245" y="170.397851" style="fill: #0000ff; stroke: #0000ff; stroke-linejoin: miter"/>
     <use xlink:href="#md70aed0f15" x="258.133542" y="158.829958" style="fill: #0000ff; stroke: #0000ff; stroke-linejoin: miter"/>
     <use xlink:href="#md70aed0f15" x="268.62884" y="150.528583" style="fill: #0000ff; stroke: #0000ff; stroke-linejoin: miter"/>
     <use xlink:href="#md70aed0f15" x="279.124138" y="150.504023" style="fill: #0000ff; stroke: #0000ff; stroke-linejoin: miter"/>
     <use xlink:href="#md70aed0f15" x="289.619436" y="140.458868" style="fill: #0000ff; stroke: #0000ff; stroke-linejoin: miter"/>
     <use xlink:href="#md70aed0f15" x="300.114734" y="128.571692" style="fill: #0000ff; stroke: #0000ff; stroke-linejoin: miter"/>
     <use xlink:href="#md70aed0f15" x="310.610031" y="124.0526" style="fill: #0000ff; stroke: #0000ff; stroke-linejoin: miter"/>
     <use xlink:href="#md70aed0f15" x="321.105329" y="108.260339" style="fill: #0000ff; stroke: #0000ff; stroke-linejoin: miter"/>
     <use xlink:href="#md70aed0f15" x="331.600627" y="98.190624" style="fill: #0000ff; stroke: #0000ff; stroke-linejoin: miter"/>
     <use xlink:href="#md70aed0f15" x="342.095925" y="81.882597" style="fill: #0000ff; stroke: #0000ff; stroke-linejoin: miter"/>
     <use xlink:href="#md70aed0f15" x="352.591223" y="68.006038" style="fill: #0000ff; stroke: #0000ff; stroke-linejoin: miter"/>
     <use xlink:href="#md70aed0f15" x="363.08652" y="64.567598" style="fill: #0000ff; stroke: #0000ff; stroke-linejoin: miter"/>
     <use xlink:href="#md70aed0f15" x="373.581818" y="54.448762" style="fill: #0000ff; stroke: #0000ff; stroke-linejoin: miter"/>
    </g>
   </g>
   <g id="line2d_29">
    <path d="M 69.218182 242.854308 
L 79.71348 242.194208 
L 90.208777 238.778677 
L 100.704075 235.531349 
L 111.199373 233.277335 
L 121.694671 230.76215 
L 132.189969 227.309208 
L 142.685266 222.849352 
L 153.180564 221.036956 
L 163.675862 218.989365 
L 174.17116 214.918691 
L 184.666458 210.66665 
L 195.161755 204.945599 
L 205.657053 199.798375 
L 216.152351 193.286358 
L 226.647649 186.659518 
L 237.142947 179.248217 
L 247.638245 171.382993 
L 258.133542 162.45442 
L 268.62884 153.240427 
L 279.124138 145.189278 
L 289.619436 136.449382 
L 300.114734 126.844709 
L 310.610031 117.620764 
L 321.105329 107.066953 
L 331.600627 96.187885 
L 342.095925 84.178736 
L 352.591223 71.517965 
L 363.08652 59.618831 
L 373.581818 47.545535 
" clip-path="url(#p57fbf8162f)" style="fill: none; stroke: #ff0000; stroke-width: 1.5; stroke-linecap: square"/>
    <defs>
     <path id="m714e12d479" d="M 0 3 
C 0.795609 3 1.55874 2.683901 2.12132 2.12132 
C 2.683901 1.55874 3 0.795609 3 0 
C 3 -0.795609 2.683901 -1.55874 2.12132 -2.12132 
C 1.55874 -2.683901 0.795609 -3 0 -3 
C -0.795609 -3 -1.55874 -2.683901 -2.12132 -2.12132 
C -2.683901 -1.55874 -3 -0.795609 -3 0 
C -3 0.795609 -2.683901 1.55874 -2.12132 2.12132 
C -1.55874 2.683901 -0.795609 3 0 3 
z
" style="stroke: #ff0000"/>
    </defs>
    <g clip-path="url(#p57fbf8162f)">
     <use xlink:href="#m714e12d479" x="69.218182" y="242.854308" style="fill: #ff0000; stroke: #ff0000"/>
     <use xlink:href="#m714e12d479" x="79.71348" y="242.194208" style="fill: #ff0000; stroke: #ff0000"/>
     <use xlink:href="#m714e12d479" x="90.208777" y="238.778677" style="fill: #ff0000; stroke: #ff0000"/>
     <use xlink:href="#m714e12d479" x="100.704075" y="235.531349" style="fill: #ff0000; stroke: #ff0000"/>
     <use xlink:href="#m714e12d479" x="111.199373" y="233.277335" style="fill: #ff0000; stroke: #ff0000"/>
     <use xlink:href="#m714e12d479" x="121.694671" y="230.76215" style="fill: #ff0000; stroke: #ff0000"/>
     <use xlink:href="#m714e12d479" x="132.189969" y="227.309208" style="fill: #ff0000; stroke: #ff0000"/>
     <use xlink:href="#m714e12d479" x="142.685266" y="222.849352" style="fill: #ff0000; stroke: #ff0000"/>
     <use xlink:href="#m714e12d479" x="153.180564" y="221.036956" style="fill: #ff0000; stroke: #ff0000"/>
     <use xlink:href="#m714e12d479" x="163.675862" y="218.989365" style="fill: #ff0000; stroke: #ff0000"/>
     <use xlink:href="#m714e12d479" x="174.17116" y="214.918691" style="fill: #ff0000; stroke: #ff0000"/>
     <use xlink:href="#m714e12d479" x="184.666458" y="210.66665" style="fill: #ff0000; stroke: #ff0000"/>
     <use xlink:href="#m714e12d479" x="195.161755" y="204.945599" style="fill: #ff0000; stroke: #ff0000"/>
     <use xlink:href="#m714e12d479" x="205.657053" y="199.798375" style="fill: #ff0000; stroke: #ff0000"/>
     <use xlink:href="#m714e12d479" x="216.152351" y="193.286358" style="fill: #ff0000; stroke: #ff0000"/>
     <use xlink:href="#m714e12d479" x="226.647649" y="186.659518" style="fill: #ff0000; stroke: #ff0000"/>
     <use xlink:href="#m714e12d479" x="237.142947" y="179.248217" style="fill: #ff0000; stroke: #ff0000"/>
     <use xlink:href="#m714e12d479" x="247.638245" y="171.382993" style="fill: #ff0000; stroke: #ff0000"/>
     <use xlink:href="#m714e12d479" x="258.133542" y="162.45442" style="fill: #ff0000; stroke: #ff0000"/>
     <use xlink:href="#m714e12d479" x="268.62884" y="153.240427" style="fill: #ff0000; stroke: #ff0000"/>
     <use xlink:href="#m714e12d479" x="279.124138" y="145.189278" style="fill: #ff0000; stroke: #ff0000"/>
     <use xlink:href="#m714e12d479" x="289.619436" y="136.449382" style="fill: #ff0000; stroke: #ff0000"/>
     <use xlink:href="#m714e12d479" x="300.114734" y="126.844709" style="fill: #ff0000; stroke: #ff0000"/>
     <use xlink:href="#m714e12d479" x="310.610031" y="117.620764" style="fill: #ff0000; stroke: #ff0000"/>
     <use xlink:href="#m714e12d479" x="321.105329" y="107.066953" style="fill: #ff0000; stroke: #ff0000"/>
     <use xlink:href="#m714e12d479" x="331.600627" y="96.187885" style="fill: #ff0000; stroke: #ff0000"/>
     <use xlink:href="#m714e12d479" x="342.095925" y="84.178736" style="fill: #ff0000; stroke: #ff0000"/>
     <use xlink:href="#m714e12d479" x="352.591223" y="71.517965" style="fill: #ff0000; stroke: #ff0000"/>
     <use xlink:href="#m714e12d479" x="363.08652" y="59.618831" style="fill: #ff0000; stroke: #ff0000"/>
     <use xlink:href="#m714e12d479" x="373.581818" y="47.545535" style="fill: #ff0000; stroke: #ff0000"/>
    </g>
   </g>
   <g id="patch_3">
    <path d="M 54 256.32 
L 54 34.56 
" style="fill: none; stroke: #000000; stroke-width: 0.8; stroke-linejoin: miter; stroke-linecap: square"/>
   </g>
   <g id="patch_4">
    <path d="M 388.8 256.32 
L 388.8 34.56 
" style="fill: none; stroke: #000000; stroke-width: 0.8; stroke-linejoin: miter; stroke-linecap: square"/>
   </g>
   <g id="patch_5">
    <path d="M 54 256.32 
L 388.8 256.32 
" style="fill: none; stroke: #000000; stroke-width: 0.8; stroke-linejoin: miter; stroke-linecap: square"/>
   </g>
   <g id="patch_6">
    <path d="M 54 34.56 
L 388.8 34.56 
" style="fill: none; stroke: #000000; stroke-width: 0.8; stroke-linejoin: miter; stroke-linecap: square"/>
   </g>
   <g id="legend_1">
    <g id="patch_7">
     <path d="M 61 85.070938 
L 151.323438 85.070938 
Q 153.323438 85.070938 153.323438 83.070938 
L 153.323438 41.56 
Q 153.323438 39.56 151.323438 39.56 
L 61 39.56 
Q 59 39.56 59 41.56 
L 59 83.070938 
Q 59 85.070938 61 85.070938 
z
" style="fill: #ffffff; opacity: 0.8; stroke: #cccccc; stroke-linejoin: miter"/>
    </g>
    <g id="line2d_30">
     <path d="M 63 47.06 
L 73 47.06 
L 83 47.06 
" style="fill: none; stroke: #008000; stroke-width: 1.5; stroke-linecap: square"/>
     <g>
      <use xlink:href="#m8afb0084be" x="73" y="47.06" style="fill: #008000; stroke: #008000; stroke-linejoin: miter"/>
     </g>
    </g>
    <g id="text_16">
     <!-- True value -->
     <g transform="translate(91 50.56) scale(0.1 -0.1)">
      <defs>
       <path id="STIXGeneral-Regular-72" d="M 1024 2931 
L 1024 2342 
Q 1267 2688 1430 2816 
Q 1594 2944 1792 2944 
Q 1958 2944 2051 2854 
Q 2144 2765 2144 2605 
Q 2144 2470 2077 2393 
Q 2010 2317 1894 2317 
Q 1773 2317 1638 2445 
Q 1536 2541 1472 2541 
Q 1338 2541 1181 2355 
Q 1024 2170 1024 2016 
L 1024 576 
Q 1024 301 1133 205 
Q 1242 109 1568 96 
L 1568 0 
L 32 0 
L 32 96 
Q 339 154 412 224 
Q 486 294 486 538 
L 486 2138 
Q 486 2349 438 2435 
Q 390 2522 269 2522 
Q 166 2522 45 2496 
L 45 2598 
Q 448 2726 992 2944 
L 1024 2931 
z
" transform="scale(0.015625)"/>
       <path id="STIXGeneral-Regular-76" d="M 3053 2880 
L 3053 2784 
Q 2906 2771 2835 2688 
Q 2765 2605 2637 2285 
L 1818 230 
Q 1690 -90 1638 -90 
Q 1587 -90 1523 77 
Q 1510 96 1497 141 
Q 1485 186 1472 211 
L 704 2048 
Q 499 2534 403 2652 
Q 307 2771 122 2784 
L 122 2880 
L 1376 2880 
L 1376 2784 
Q 1210 2771 1146 2732 
Q 1082 2694 1082 2611 
Q 1082 2509 1139 2368 
L 1792 730 
L 2426 2387 
Q 2464 2483 2464 2579 
Q 2464 2758 2163 2784 
L 2163 2880 
L 3053 2880 
z
" transform="scale(0.015625)"/>
       <path id="STIXGeneral-Regular-61" d="M 2829 422 
L 2829 243 
Q 2586 -64 2253 -64 
Q 1888 -64 1843 403 
L 1837 403 
Q 1427 -64 909 -64 
Q 608 -64 422 112 
Q 237 288 237 602 
Q 237 1050 685 1350 
Q 992 1555 1837 1869 
L 1837 2214 
Q 1837 2502 1699 2646 
Q 1562 2790 1338 2790 
Q 1146 2790 1018 2697 
Q 890 2605 890 2477 
Q 890 2419 909 2348 
Q 928 2278 928 2208 
Q 928 2112 841 2029 
Q 755 1946 634 1946 
Q 525 1946 441 2029 
Q 358 2112 358 2240 
Q 358 2547 685 2752 
Q 986 2944 1421 2944 
Q 1939 2944 2176 2656 
Q 2291 2522 2323 2384 
Q 2355 2246 2355 1946 
L 2355 723 
Q 2355 301 2554 301 
Q 2682 301 2829 422 
z
M 1837 813 
L 1837 1715 
Q 1248 1510 1018 1293 
Q 800 1094 800 800 
Q 800 557 921 432 
Q 1043 307 1242 307 
Q 1453 307 1613 410 
Q 1747 506 1792 589 
Q 1837 672 1837 813 
z
" transform="scale(0.015625)"/>
      </defs>
      <use xlink:href="#STIXGeneral-Regular-54"/>
      <use xlink:href="#STIXGeneral-Regular-72" x="61.099991"/>
      <use xlink:href="#STIXGeneral-Regular-75" x="94.399979"/>
      <use xlink:href="#STIXGeneral-Regular-65" x="144.399963"/>
      <use xlink:href="#STIXGeneral-Regular-20" x="188.799957"/>
      <use xlink:href="#STIXGeneral-Regular-76" x="213.799942"/>
      <use xlink:href="#STIXGeneral-Regular-61" x="263.799927"/>
      <use xlink:href="#STIXGeneral-Regular-6c" x="308.199921"/>
      <use xlink:href="#STIXGeneral-Regular-75" x="335.999908"/>
      <use xlink:href="#STIXGeneral-Regular-65" x="385.999893"/>
     </g>
    </g>
    <g id="line2d_31">
     <path d="M 63 61.230312 
L 73 61.230312 
L 83 61.230312 
" style="fill: none; stroke: #0000ff; stroke-width: 1.5; stroke-linecap: square"/>
     <g>
      <use xlink:href="#md70aed0f15" x="73" y="61.230312" style="fill: #0000ff; stroke: #0000ff; stroke-linejoin: miter"/>
     </g>
    </g>
    <g id="text_17">
     <!-- Measurements -->
     <g transform="translate(91 64.730312) scale(0.1 -0.1)">
      <defs>
       <path id="STIXGeneral-Regular-4d" d="M 5530 0 
L 3738 0 
L 3738 122 
Q 4115 147 4214 265 
Q 4314 384 4314 787 
L 4314 3661 
L 2682 0 
L 2592 0 
L 979 3514 
L 979 966 
Q 979 448 1088 294 
Q 1197 141 1574 122 
L 1574 0 
L 77 0 
L 77 122 
Q 358 141 480 205 
Q 602 269 650 432 
Q 698 595 698 966 
L 698 3514 
Q 698 3878 589 3984 
Q 480 4090 90 4115 
L 90 4237 
L 1357 4237 
L 2835 1024 
L 4250 4237 
L 5523 4237 
L 5523 4115 
Q 5178 4109 5072 3993 
Q 4966 3878 4966 3520 
L 4966 717 
Q 4966 378 5072 262 
Q 5178 147 5530 122 
L 5530 0 
z
" transform="scale(0.015625)"/>
       <path id="STIXGeneral-Regular-6e" d="M 3104 0 
L 1773 0 
L 1779 96 
Q 2016 115 2096 233 
Q 2176 352 2176 672 
L 2176 1946 
Q 2176 2592 1709 2592 
Q 1549 2592 1408 2515 
Q 1267 2438 1050 2227 
L 1050 461 
Q 1050 269 1136 192 
Q 1222 115 1466 96 
L 1466 0 
L 115 0 
L 115 96 
Q 358 115 435 214 
Q 512 314 512 602 
L 512 2157 
Q 512 2394 467 2483 
Q 422 2573 288 2573 
Q 160 2573 102 2547 
L 102 2656 
Q 550 2784 979 2944 
L 1030 2925 
L 1030 2426 
L 1037 2426 
Q 1491 2944 1958 2944 
Q 2323 2944 2518 2688 
Q 2714 2432 2714 1958 
L 2714 544 
Q 2714 288 2790 205 
Q 2867 122 3104 96 
L 3104 0 
z
" transform="scale(0.015625)"/>
      </defs>
      <use xlink:href="#STIXGeneral-Regular-4d"/>
      <use xlink:href="#STIXGeneral-Regular-65" x="88.899994"/>
      <use xlink:href="#STIXGeneral-Regular-61" x="133.299988"/>
      <use xlink:href="#STIXGeneral-Regular-73" x="177.699982"/>
      <use xlink:href="#STIXGeneral-Regular-75" x="216.599976"/>
      <use xlink:href="#STIXGeneral-Regular-72" x="266.59996"/>
      <use xlink:href="#STIXGeneral-Regular-65" x="299.899948"/>
      <use xlink:href="#STIXGeneral-Regular-6d" x="344.299942"/>
      <use xlink:href="#STIXGeneral-Regular-65" x="422.09993"/>
      <use xlink:href="#STIXGeneral-Regular-6e" x="466.499924"/>
      <use xlink:href="#STIXGeneral-Regular-74" x="516.499908"/>
      <use xlink:href="#STIXGeneral-Regular-73" x="544.299896"/>
     </g>
    </g>
    <g id="line2d_32">
     <path d="M 63 75.400625 
L 73 75.400625 
L 83 75.400625 
" style="fill: none; stroke: #ff0000; stroke-width: 1.5; stroke-linecap: square"/>
     <g>
      <use xlink:href="#m714e12d479" x="73" y="75.400625" style="fill: #ff0000; stroke: #ff0000"/>
     </g>
    </g>
    <g id="text_18">
     <!-- Estimates -->
     <g transform="translate(91 78.900625) scale(0.1 -0.1)">
      <defs>
       <path id="STIXGeneral-Regular-45" d="M 3821 1082 
L 3526 0 
L 77 0 
L 77 122 
Q 442 147 538 252 
Q 634 358 634 730 
L 634 3520 
Q 634 3878 534 3987 
Q 435 4096 77 4115 
L 77 4237 
L 3469 4237 
L 3494 3322 
L 3334 3322 
Q 3264 3750 3085 3872 
Q 2906 3994 2349 3994 
L 1510 3994 
Q 1370 3994 1328 3952 
Q 1286 3910 1286 3763 
L 1286 2355 
L 2253 2355 
Q 2656 2355 2787 2470 
Q 2918 2586 2976 2970 
L 3123 2970 
L 3123 1472 
L 2976 1472 
Q 2918 1875 2790 1984 
Q 2662 2093 2253 2093 
L 1286 2093 
L 1286 538 
Q 1286 346 1420 291 
Q 1555 237 1933 237 
L 2163 237 
Q 2848 237 3136 403 
Q 3424 570 3642 1082 
L 3821 1082 
z
" transform="scale(0.015625)"/>
      </defs>
      <use xlink:href="#STIXGeneral-Regular-45"/>
      <use xlink:href="#STIXGeneral-Regular-73" x="61.099991"/>
      <use xlink:href="#STIXGeneral-Regular-74" x="99.999985"/>
      <use xlink:href="#STIXGeneral-Regular-69" x="127.799973"/>
      <use xlink:href="#STIXGeneral-Regular-6d" x="155.59996"/>
      <use xlink:href="#STIXGeneral-Regular-61" x="233.399948"/>
      <use xlink:href="#STIXGeneral-Regular-74" x="277.799942"/>
      <use xlink:href="#STIXGeneral-Regular-65" x="305.59993"/>
      <use xlink:href="#STIXGeneral-Regular-73" x="349.999924"/>
     </g>
    </g>
   </g>
  </g>
  <g id="text_19">
   <!-- Rocket altitude -->
   <g transform="translate(179.50125 13.955625) scale(0.12 -0.12)">
    <defs>
     <path id="STIXGeneral-Regular-52" d="M 4224 0 
L 3187 0 
L 1664 1971 
L 1306 1958 
L 1306 717 
Q 1306 352 1405 249 
Q 1504 147 1875 122 
L 1875 0 
L 109 0 
L 109 122 
Q 474 154 563 262 
Q 653 371 653 794 
L 653 3526 
Q 653 3885 563 3987 
Q 474 4090 109 4115 
L 109 4237 
L 1850 4237 
Q 2726 4237 3187 3859 
Q 3501 3603 3501 3091 
Q 3501 2221 2342 2042 
L 3622 422 
Q 3757 256 3878 198 
Q 4000 141 4224 122 
L 4224 0 
z
M 1306 3731 
L 1306 2195 
Q 1766 2202 1990 2246 
Q 2214 2291 2438 2413 
Q 2803 2618 2803 3142 
Q 2803 4000 1632 4000 
Q 1459 4000 1382 3945 
Q 1306 3891 1306 3731 
z
" transform="scale(0.015625)"/>
     <path id="STIXGeneral-Regular-6f" d="M 3008 1478 
Q 3008 806 2608 371 
Q 2208 -64 1568 -64 
Q 979 -64 582 368 
Q 186 800 186 1459 
Q 186 2125 582 2534 
Q 979 2944 1626 2944 
Q 2221 2944 2614 2537 
Q 3008 2131 3008 1478 
z
M 2432 1306 
Q 2432 2035 2112 2445 
Q 1856 2765 1504 2765 
Q 1171 2765 966 2493 
Q 762 2221 762 1747 
Q 762 928 1101 435 
Q 1318 115 1677 115 
Q 2029 115 2230 432 
Q 2432 749 2432 1306 
z
" transform="scale(0.015625)"/>
     <path id="STIXGeneral-Regular-63" d="M 2547 998 
L 2637 941 
Q 2362 403 2112 205 
Q 1786 -64 1376 -64 
Q 845 -64 502 336 
Q 160 736 160 1357 
Q 160 2170 698 2618 
Q 1094 2944 1562 2944 
Q 1965 2944 2256 2749 
Q 2547 2554 2547 2285 
Q 2547 2176 2457 2096 
Q 2368 2016 2246 2016 
Q 2022 2016 1939 2310 
L 1901 2451 
Q 1850 2630 1773 2694 
Q 1696 2758 1523 2758 
Q 1133 2758 893 2451 
Q 653 2144 653 1645 
Q 653 1094 928 745 
Q 1203 397 1645 397 
Q 1920 397 2118 528 
Q 2317 659 2547 998 
z
" transform="scale(0.015625)"/>
     <path id="STIXGeneral-Regular-6b" d="M 3232 0 
L 1837 0 
L 1837 96 
L 1958 96 
Q 2093 96 2093 192 
Q 2093 250 2022 339 
L 1062 1606 
L 1062 429 
Q 1062 262 1142 185 
Q 1222 109 1414 102 
L 1542 96 
L 1542 0 
L 45 0 
L 45 96 
Q 390 154 457 214 
Q 525 275 525 525 
L 525 3610 
Q 525 3840 467 3920 
Q 410 4000 250 4000 
Q 211 4000 45 3987 
L 45 4090 
L 237 4141 
Q 621 4243 1037 4371 
L 1062 4358 
L 1062 1670 
L 1939 2451 
Q 2086 2586 2086 2675 
Q 2086 2739 2019 2761 
Q 1952 2784 1766 2790 
L 1766 2880 
L 3072 2880 
L 3072 2784 
Q 2752 2784 2505 2646 
Q 2259 2509 1690 1978 
L 1504 1805 
L 2483 563 
Q 2829 122 3232 96 
L 3232 0 
z
" transform="scale(0.015625)"/>
    </defs>
    <use xlink:href="#STIXGeneral-Regular-52"/>
    <use xlink:href="#STIXGeneral-Regular-6f" x="66.699997"/>
    <use xlink:href="#STIXGeneral-Regular-63" x="116.699982"/>
    <use xlink:href="#STIXGeneral-Regular-6b" x="161.099976"/>
    <use xlink:href="#STIXGeneral-Regular-65" x="211.09996"/>
    <use xlink:href="#STIXGeneral-Regular-74" x="255.499954"/>
    <use xlink:href="#STIXGeneral-Regular-20" x="283.299942"/>
    <use xlink:href="#STIXGeneral-Regular-61" x="308.299927"/>
    <use xlink:href="#STIXGeneral-Regular-6c" x="352.699921"/>
    <use xlink:href="#STIXGeneral-Regular-74" x="380.499908"/>
    <use xlink:href="#STIXGeneral-Regular-69" x="408.299896"/>
    <use xlink:href="#STIXGeneral-Regular-74" x="436.099884"/>
    <use xlink:href="#STIXGeneral-Regular-75" x="463.899872"/>
    <use xlink:href="#STIXGeneral-Regular-64" x="513.899857"/>
    <use xlink:href="#STIXGeneral-Regular-65" x="563.899841"/>
   </g>
  </g>
 </g>
 <defs>
  <clipPath id="p57fbf8162f">
   <rect x="54" y="34.56" width="334.8" height="221.76"/>
  </clipPath>
 </defs>
</svg>
